<svg width="118" height="172" viewBox="0 0 118 172" fill="none" xmlns="http://www.w3.org/2000/svg">
<path fill-rule="evenodd" clip-rule="evenodd" d="M18.4616 26.0643C8.0206 41.3886 1.55166 62.578 1.55166 86C1.55166 109.422 8.0206 130.611 18.4616 145.936C28.9037 161.262 43.2939 170.692 59.1459 170.692C74.9978 170.692 89.388 161.262 99.8301 145.936C110.271 130.611 116.74 109.422 116.74 86C116.74 62.578 110.271 41.3886 99.8301 26.0643C89.388 10.7382 74.9978 1.30804 59.1459 1.30804C43.2939 1.30804 28.9037 10.7382 18.4616 26.0643ZM17.8941 25.6777C28.4212 10.227 42.9998 0.621368 59.1459 0.621368C75.2919 0.621368 89.8705 10.227 100.398 25.6777C110.926 41.1301 117.427 62.4583 117.427 86C117.427 109.542 110.926 130.87 100.398 146.322C89.8705 161.773 75.2919 171.379 59.1459 171.379C42.9998 171.379 28.4212 161.773 17.8941 146.322C7.3658 130.87 0.86499 109.542 0.86499 86C0.86499 62.4583 7.3658 41.1301 17.8941 25.6777Z" fill="#737300"/>
<path fill-rule="evenodd" clip-rule="evenodd" d="M19.6257 27.2775C9.48203 42.2908 3.19692 63.0508 3.19692 85.9986C3.19692 108.946 9.48203 129.706 19.6257 144.72C29.7708 159.735 43.7496 168.971 59.146 168.971C74.5423 168.971 88.5212 159.735 98.6662 144.72C108.81 129.706 115.095 108.946 115.095 85.9986C115.095 63.0508 108.81 42.2908 98.6662 27.2775C88.5212 12.2623 74.5423 3.02596 59.146 3.02596C43.7496 3.02596 29.7708 12.2623 19.6257 27.2775ZM19.0568 26.8931C29.2855 11.7539 43.4529 2.33929 59.146 2.33929C74.8391 2.33929 89.0064 11.7539 99.2352 26.8931C109.465 42.0343 115.782 62.9323 115.782 85.9986C115.782 109.065 109.465 129.963 99.2352 145.104C89.0064 160.243 74.8391 169.658 59.146 169.658C43.4529 169.658 29.2855 160.243 19.0568 145.104C8.82662 129.963 2.51025 109.065 2.51025 85.9986C2.51025 62.9323 8.82662 42.0343 19.0568 26.8931Z" fill="#737300"/>
<path fill-rule="evenodd" clip-rule="evenodd" d="M32.9533 40.0142C26.2435 51.6667 22.0824 67.7871 22.0824 85.6119C22.0824 103.437 26.2435 119.557 32.9533 131.21C39.6685 142.871 48.8938 149.996 59.0111 149.996C69.1285 149.996 78.3537 142.871 85.0689 131.21C91.7788 119.557 95.9398 103.437 95.9398 85.6119C95.9398 67.7871 91.7788 51.6667 85.0689 40.0142C78.3537 28.3526 69.1285 21.2281 59.0111 21.2281C48.8938 21.2281 39.6685 28.3526 32.9533 40.0142ZM32.3583 39.6716C39.1329 27.9066 48.5437 20.5414 59.0111 20.5414C69.4785 20.5414 78.8893 27.9066 85.664 39.6716C92.444 51.4458 96.6265 67.6889 96.6265 85.6119C96.6265 103.535 92.444 119.778 85.664 131.552C78.8893 143.317 69.4785 150.682 59.0111 150.682C48.5437 150.682 39.1329 143.317 32.3583 131.552C25.5783 119.778 21.3958 103.535 21.3958 85.6119C21.3958 67.6889 25.5783 51.4458 32.3583 39.6716Z" fill="#737300"/>
<path fill-rule="evenodd" clip-rule="evenodd" d="M33.8229 41.4622C27.3422 52.7633 23.3229 68.3986 23.3229 85.6874C23.3229 102.976 27.3422 118.611 33.8229 129.912C40.309 141.223 49.2175 148.129 58.9841 148.129C68.7507 148.129 77.6591 141.223 84.1452 129.912C90.6259 118.611 94.6452 102.976 94.6452 85.6874C94.6452 68.3986 90.6259 52.7633 84.1452 41.4622C77.6591 30.1516 68.7507 23.2454 58.9841 23.2454C49.2175 23.2454 40.309 30.1516 33.8229 41.4622ZM33.2272 41.1206C39.7722 29.7074 48.8659 22.5587 58.9841 22.5587C69.1022 22.5587 78.1959 29.7074 84.7409 41.1206C91.2913 52.5433 95.3318 68.3008 95.3318 85.6874C95.3318 103.074 91.2913 118.831 84.7409 130.254C78.1959 141.667 69.1022 148.816 58.9841 148.816C48.8659 148.816 39.7722 141.667 33.2272 130.254C26.6768 118.831 22.6362 103.074 22.6362 85.6874C22.6362 68.3008 26.6768 52.5433 33.2272 41.1206Z" fill="#737300"/>
<path fill-rule="evenodd" clip-rule="evenodd" d="M13.1769 73.6306C11.1621 73.6306 9.52871 75.264 9.52871 77.2788C9.52871 79.2936 11.1621 80.927 13.1769 80.927C15.1917 80.927 16.8251 79.2937 16.8251 77.2788C16.8251 75.264 15.1917 73.6306 13.1769 73.6306ZM8.84204 77.2788C8.84204 74.8848 10.7828 72.944 13.1769 72.944C15.571 72.944 17.5117 74.8848 17.5117 77.2788C17.5117 79.6729 15.571 81.6136 13.1769 81.6136C10.7828 81.6136 8.84204 79.6729 8.84204 77.2788Z" fill="#737300"/>
<path fill-rule="evenodd" clip-rule="evenodd" d="M13.2095 71.749C10.2377 71.749 7.82851 74.1581 7.82851 77.1299C7.82851 80.1018 10.2377 82.5109 13.2095 82.5109C16.1813 82.5109 18.5904 80.1018 18.5904 77.1299C18.5904 74.1581 16.1813 71.749 13.2095 71.749ZM7.14185 77.1299C7.14185 73.7789 9.85841 71.0623 13.2095 71.0623C16.5605 71.0623 19.2771 73.7789 19.2771 77.1299C19.2771 80.481 16.5605 83.1976 13.2095 83.1976C9.85841 83.1976 7.14185 80.481 7.14185 77.1299Z" fill="#737300"/>
<path fill-rule="evenodd" clip-rule="evenodd" d="M105.048 73.6306C103.033 73.6306 101.4 75.264 101.4 77.2788C101.4 79.2936 103.033 80.927 105.048 80.927C107.063 80.927 108.696 79.2937 108.696 77.2788C108.696 75.264 107.063 73.6306 105.048 73.6306ZM100.713 77.2788C100.713 74.8848 102.654 72.944 105.048 72.944C107.442 72.944 109.383 74.8848 109.383 77.2788C109.383 79.6729 107.442 81.6136 105.048 81.6136C102.654 81.6136 100.713 79.6729 100.713 77.2788Z" fill="#737300"/>
<path fill-rule="evenodd" clip-rule="evenodd" d="M105.082 71.749C102.11 71.749 99.7011 74.1581 99.7011 77.1299C99.7011 80.1018 102.11 82.5109 105.082 82.5109C108.054 82.5109 110.463 80.1018 110.463 77.1299C110.463 74.1581 108.054 71.749 105.082 71.749ZM99.0144 77.1299C99.0144 73.7789 101.731 71.0623 105.082 71.0623C108.433 71.0623 111.15 73.7789 111.15 77.1299C111.15 80.481 108.433 83.1976 105.082 83.1976C101.731 83.1976 99.0144 80.481 99.0144 77.1299Z" fill="#737300"/>
<path d="M92.6905 69.2281L78.8416 69.3427L74.304 72.579L77.7763 80.2856L92.8658 69.4168L92.6905 69.2281Z" stroke="#737300" stroke-width="0.08" stroke-miterlimit="10" stroke-linejoin="round"/>
<path d="M33.6268 101.626L29.5476 115.023L33.856 111.922L37.5981 98.7877L33.6268 101.626Z" stroke="#737300" stroke-width="0.08" stroke-miterlimit="10" stroke-linejoin="round"/>
<path d="M42.6084 81.1896L37.5988 98.7873L33.8568 111.922L30.1687 123.35L32.2386 127.732L35.1379 132.661L43.8895 104.694L47.7461 91.5459L49.3711 85.9902L49.452 85.707L42.6084 81.1896Z" stroke="#737300" stroke-width="0.08" stroke-miterlimit="10" stroke-linejoin="round"/>
<path d="M75.2075 93.2874L67.1301 87.9541L60.3 92.8761L81.1004 106.435L75.2075 93.2874Z" stroke="#737300" stroke-width="0.08" stroke-miterlimit="10" stroke-linejoin="round"/>
<path d="M67.9658 77.1032L59.6726 83.0231L52.8089 87.9248L47.7453 91.5455L43.8887 104.693L60.2997 92.8737L67.1297 87.9518L71.4382 84.8503L67.9658 77.1032Z" stroke="#737300" stroke-width="0.08" stroke-miterlimit="10" stroke-linejoin="round"/>
<path d="M51.7708 77.8123L44.8734 73.2544L39.4322 69.6675L25.4215 69.7821L25.3945 69.8226L42.6079 81.1903L49.4514 85.7077L52.8092 87.9259L59.6729 83.0242L51.7708 77.8123Z" stroke="#737300" stroke-width="0.08" stroke-miterlimit="10" stroke-linejoin="round"/>
<path d="M53.3213 44.3777H53.1055L48.0689 62.0293L45.9114 69.6145L44.873 73.2554L51.7705 77.8133L54.2045 69.5471L56.4228 61.9956L58.3174 55.5431L53.3213 44.3777Z" stroke="#737300" stroke-width="0.08" stroke-miterlimit="10" stroke-linejoin="round"/>
<path d="M30.485 62.1085L25.3945 69.7814H25.4215L39.4322 69.6667L45.9117 69.6128L48.0693 62.0276L30.485 62.1085Z" stroke="#737300" stroke-width="0.08" stroke-miterlimit="10" stroke-linejoin="round"/>
<path d="M61.5812 44.4114L61.5677 44.3844L53.3218 44.3777L58.3179 55.5431L61.1969 61.9686L69.4968 61.9349L61.5812 44.4114Z" stroke="#737300" stroke-width="0.08" stroke-miterlimit="10"/>
<path d="M77.7767 80.2864L74.3043 72.5799L72.8615 69.3907L64.5481 69.4581L67.9665 77.104L71.4388 84.851L75.2079 93.2858L81.1007 106.433L86.643 100.831L86.9262 100.547L77.7767 80.2864Z" stroke="#737300" stroke-width="0.08" stroke-miterlimit="10" stroke-linejoin="round"/>
<path d="M87.998 64.2146L87.1889 63.3853L85.6989 61.8615L69.4969 61.9357L61.197 61.9694L56.4234 61.9964L54.2051 69.5479L64.548 69.4602L72.8613 69.3928L78.8419 69.3456L92.6908 69.231L87.998 64.2146Z" stroke="#737300" stroke-width="0.08" stroke-miterlimit="10" stroke-linejoin="round"/>
<path d="M58.4798 68.9865C68.0001 68.9865 77.5272 68.9865 87.0474 68.9865C87.6745 68.9865 87.7082 69.0202 87.5531 69.6405C87.2969 70.6654 86.6833 71.4812 85.9686 72.2296C84.9977 73.2545 83.8178 73.9961 82.5705 74.6367C80.6624 75.6211 78.6464 76.3425 76.5765 76.8954C74.7223 77.3876 72.8412 77.7584 70.9466 78.0483C69.5104 78.2708 68.0676 78.4664 66.6179 78.608C65.3369 78.7361 64.0558 78.8574 62.7748 78.9114C62.586 78.9181 62.532 79.0057 62.5253 79.181C62.4714 80.516 62.4174 81.8578 62.35 83.1928C62.2691 84.8851 62.1612 86.5775 62.087 88.2698C62.0196 89.7801 61.9791 91.2904 61.905 92.794C61.851 93.9065 61.7769 95.019 61.6892 96.1315C61.6555 96.536 61.6555 96.9473 61.6353 97.3519C61.6218 97.5946 61.5207 97.6957 61.2442 97.7092C59.5316 97.7699 58.0416 97.2507 56.7807 96.0843C56.5785 95.8955 56.4908 95.6932 56.4706 95.4033C56.3627 93.7649 56.2211 92.1265 56.093 90.4881C56.0323 89.679 55.9784 88.8632 55.9177 88.0541C55.8031 86.3887 55.6952 84.7233 55.5671 83.0579C55.4727 81.8308 55.4255 80.6037 55.2974 79.3766C55.2704 79.1136 55.1896 79.0664 54.9468 79.0529C53.3489 78.972 51.7442 78.8844 50.1462 78.7293C49.0877 78.6214 48.0291 78.4866 46.9773 78.3382C45.912 78.1832 44.8467 78.0214 43.7949 77.8056C41.5362 77.3404 39.2842 76.8212 37.1266 75.9582C35.5691 75.3379 34.0386 74.6839 32.6834 73.6927C31.2742 72.6611 30.0606 71.461 29.5144 69.7282C29.2785 68.9865 29.2784 68.9798 30.0538 68.9798C35.2387 68.9798 40.4169 68.9798 45.6018 68.9798C49.89 68.9798 54.1782 68.9798 58.4596 68.9798L58.4798 68.9865Z" fill="#737300"/>
<path d="M55.6009 65.1688C55.6684 64.8115 55.5268 64.7778 55.2773 64.8182C55.0346 64.8587 54.7784 64.8385 54.5289 64.8452C54.4278 64.8452 54.2996 64.8587 54.2794 64.7171C54.2659 64.5957 54.3536 64.5283 54.448 64.4744C54.6368 64.3732 54.8593 64.3732 55.0616 64.3462C55.2706 64.3193 55.3987 64.2316 55.4728 64.0361C55.6818 63.5102 55.8976 62.991 56.1134 62.4651C56.1606 62.3572 56.2078 62.2291 56.1134 62.1347C56.019 62.0403 55.9111 62.1347 55.8234 62.1752C55.0481 62.4988 54.2727 62.8157 53.5041 63.1596C52.9714 63.3956 52.8433 63.6518 52.8972 64.2249C52.9309 64.535 52.8096 64.5755 52.5601 64.4609C52.1758 64.2788 51.805 64.0698 51.6027 63.6788C51.4746 63.436 51.2588 63.2809 51.0903 63.0854C50.888 62.8427 50.9082 62.6539 51.2049 62.5325C52.3983 62.0471 53.2209 61.1773 53.8075 60.0648C53.9423 59.8086 54.1378 59.5861 54.2592 59.3232C54.7919 58.15 55.7358 57.4016 56.8416 56.8285C57.1787 56.6532 57.4821 56.4104 57.8664 56.3498C58.5676 56.2351 59.0531 55.7497 59.5722 55.3316C60.8735 54.2798 62.2961 53.3966 63.7323 52.547C64.7706 51.9402 65.9371 51.5761 67.1035 51.2592C68.5329 50.8749 69.9758 50.5176 71.4456 50.3086C73.8864 49.958 76.3339 49.8703 78.7881 50.2209C80.1231 50.4097 81.4311 50.6389 82.6852 51.1379C84.7484 51.9604 86.3328 53.3022 87.2431 55.3654C87.6476 56.2891 87.8634 57.2667 87.9173 58.2713C88.0387 60.5233 87.7757 62.7348 87.115 64.8924C86.8116 65.8903 86.434 66.8477 85.9081 67.7512C85.7058 68.1018 85.4563 68.2703 85.0248 68.2636C83.3257 68.2366 81.6334 68.2501 79.9343 68.2501C79.6848 68.2501 79.4354 68.2569 79.1252 68.1557C79.2938 68.0006 79.4421 67.886 79.5634 67.7512C80.5883 66.6319 81.3098 65.3441 81.7817 63.8878C82.247 62.4449 82.2537 60.9683 82.3683 59.4917C82.4425 58.5478 82.1121 57.7522 81.4851 57.0442C80.5074 55.9385 79.3544 55.1563 77.8374 55.244C76.4889 55.3182 75.2079 55.7227 74.0482 56.4509C73.2458 56.9498 72.5109 57.5499 71.749 58.1163C70.5152 59.0332 69.2746 59.9569 67.7912 60.4491C66.9012 60.7458 65.9708 60.8132 65.0403 60.9076C63.7458 61.0425 62.4512 61.1638 61.1634 61.3122C60.7791 61.3594 60.4352 61.5616 60.1453 61.8111C59.5115 62.364 58.8777 62.9101 58.0282 63.0922C57.9877 63.0989 57.9473 63.1124 57.9203 63.1394C57.2259 63.6248 56.5314 64.117 55.8302 64.6025C55.6414 64.7306 55.7695 64.9463 55.6009 65.189V65.1688ZM56.201 59.6333C56.6932 59.3434 57.1584 59.0669 57.6237 58.7905C57.6776 58.7568 57.7315 58.7029 57.7046 58.6287C57.6709 58.541 57.5832 58.5478 57.509 58.5343C56.5651 58.3994 56.2819 58.6287 56.2078 59.6333H56.201Z" fill="#737300"/>
<path d="M45.8308 117.388C46.2286 116.875 46.6871 116.666 47.1051 116.403C48.9323 115.257 50.6921 114.017 52.4586 112.79C54.0566 111.677 55.7422 110.747 57.684 110.396C60.5563 109.884 63.1993 110.477 65.6265 112.122C67.3593 113.295 68.9775 114.617 70.7238 115.77C71.4385 116.248 72.2409 116.552 72.9825 116.97C73.0499 117.01 73.1241 117.037 73.1848 117.084C73.2657 117.145 73.3938 117.192 73.3466 117.32C73.3061 117.428 73.1848 117.381 73.0971 117.381C71.7284 117.381 70.3597 117.395 68.9977 117.395C61.7024 117.395 54.4004 117.395 47.1051 117.395C46.7141 117.395 46.323 117.395 45.8308 117.395V117.388Z" fill="#737300"/>
<path d="M61.1502 98.242C61.5008 98.215 61.8581 98.242 62.1953 98.0802C62.8291 97.7902 62.9234 97.3048 62.384 96.8733C62.0874 96.6373 62.0132 96.4283 62.0739 96.044C62.1885 95.2956 62.202 94.5269 62.2424 93.765C62.2694 93.2661 62.3099 93.2391 62.8021 93.3807C64.3865 93.8324 65.6474 94.7696 66.7127 95.9968C67.2318 96.5968 67.6498 97.2576 67.8049 98.0667C67.9128 98.66 67.8791 99.3005 67.6364 99.7658C67.1711 100.669 66.5104 101.472 65.5597 101.957C63.8134 102.847 61.9997 102.955 60.1186 102.523C58.851 102.234 57.6576 101.755 56.5384 101.121C54.5291 99.995 52.9581 98.4443 52.0884 96.2462C51.5153 94.7966 51.2051 93.3335 51.4344 91.7828C51.5422 91.0478 51.7715 90.2792 52.2232 89.7533C52.8772 88.9847 53.6189 88.2497 54.5561 87.7845C54.8258 87.6497 55.0955 87.5148 55.3652 87.3732C55.5203 87.2923 55.6012 87.2991 55.6012 87.5081C55.5877 88.7689 55.7899 90.023 55.7562 91.2906C55.7495 91.594 55.8035 91.8906 55.8169 92.1941C55.8304 92.5649 55.8304 92.9357 55.6753 93.2796C55.3719 93.9268 55.5337 94.5269 55.7967 95.1405C56.3361 96.4013 57.3542 97.1228 58.5409 97.6689C59.3702 98.0532 60.2332 98.3094 61.1704 98.242H61.1502Z" fill="#737300"/>
<path d="M58.3114 165.367C58.2507 165.542 58.1158 165.603 57.9877 165.65C57.3876 165.873 56.7808 166.095 56.1808 166.325C55.8976 166.433 55.7088 166.392 55.5133 166.122C55.1492 165.623 55.1762 165.124 55.4054 164.599C55.9246 163.392 56.4235 162.178 56.9697 160.985C57.1787 160.526 57.1989 160.155 56.8415 159.771C56.7202 159.643 56.6325 159.555 56.4505 159.623C55.9313 159.811 55.4324 160.041 54.9334 160.277C54.8053 160.337 54.7379 160.445 54.6907 160.573C54.2929 161.659 53.8142 162.711 53.3355 163.762C53.1939 164.066 53.1534 164.315 53.3759 164.592C53.558 164.821 53.6052 164.99 53.2006 165.071C52.7287 165.165 52.2769 165.36 51.8184 165.522C51.6499 165.583 51.5218 165.576 51.3937 165.435C51.1105 165.138 50.834 164.841 50.5913 164.511C50.4632 164.342 50.4228 164.201 50.6857 164.14C51.1914 164.025 51.4139 163.675 51.5959 163.21C52.014 162.144 52.4927 161.106 52.9444 160.061C53.113 159.683 53.113 159.326 52.8298 158.996C52.6815 158.82 52.5264 158.753 52.3106 158.861C52.2634 158.881 52.2163 158.915 52.1623 158.921C51.124 159.083 50.5846 159.744 50.2744 160.708C50.0047 161.531 49.6474 162.326 49.2428 163.095C49.0878 163.385 49.2428 163.607 49.3574 163.83C49.499 164.106 49.4182 164.234 49.135 164.315C48.6967 164.437 48.2382 164.531 47.8269 164.733C47.6314 164.828 47.4898 164.754 47.3684 164.626C47.0852 164.336 46.8088 164.032 46.5324 163.736C46.4043 163.594 46.4447 163.506 46.62 163.452C47.2606 163.277 47.5235 162.798 47.7393 162.205C48.1371 161.133 48.6225 160.095 49.0675 159.043C49.108 158.948 49.1552 158.847 49.1754 158.746C49.2833 158.281 49.108 158.099 48.636 158.173C48.3393 158.22 48.036 158.261 47.7393 158.294C47.5168 158.321 47.3954 158.247 47.3954 157.991C47.3954 157.728 47.3415 157.472 47.328 157.209C47.3145 156.973 47.2066 156.899 46.9774 156.899C46.4447 156.899 46.02 157.047 45.6761 157.492C44.9479 158.423 44.1928 159.333 43.4309 160.243C43.1477 160.58 43.3499 160.857 43.4915 161.146C43.6196 161.423 43.7208 161.693 44.1456 161.47C44.3141 161.382 44.7591 161.308 44.7861 161.578C44.8131 161.841 44.422 161.76 44.2062 161.78C43.5387 161.841 42.8713 161.888 42.2038 161.956C41.9273 161.982 41.7857 161.902 41.6913 161.612C41.516 161.032 41.1317 160.573 40.7204 160.142C40.653 160.068 40.5249 160.014 40.5654 159.892C40.5991 159.791 40.7204 159.805 40.8081 159.798C41.3947 159.751 41.7857 159.42 42.1363 158.975C42.8645 158.058 43.6399 157.182 44.3006 156.211C44.4085 156.049 44.5636 155.881 44.4355 155.672C44.3074 155.469 44.0916 155.463 43.8759 155.51C43.7747 155.53 43.6534 155.557 43.6331 155.402C43.6062 155.227 43.7478 155.213 43.8624 155.2C44.4085 155.139 44.9547 155.078 45.5076 155.031C46.2897 154.97 46.2829 154.977 46.5122 155.739C46.5863 155.989 46.5661 156.231 46.5122 156.481C46.4717 156.69 46.5054 156.777 46.7549 156.696C47.4359 156.481 48.1506 156.487 48.8518 156.393C48.9866 156.373 49.0473 156.434 49.081 156.548C49.1013 156.609 49.108 156.676 49.1215 156.744C49.2631 157.559 49.263 157.553 50.0654 157.283C50.2879 157.209 50.5171 156.953 50.7531 157.175C51.0228 157.425 51.2251 157.742 51.2656 158.126C51.2723 158.213 51.2655 158.308 51.2521 158.402C51.1914 159.05 51.1981 159.056 51.8117 158.793C52.5534 158.483 53.2815 158.16 54.0434 157.897C54.3131 157.802 54.4817 157.863 54.6435 158.092C54.9806 158.557 55.2234 159.029 55.0683 159.629C54.9941 159.919 55.1829 159.865 55.3447 159.798C56.019 159.501 56.6864 159.191 57.3607 158.908C58.5676 158.402 58.2035 158.409 58.844 159.366C58.9114 159.468 58.9654 159.569 59.0193 159.677C59.1272 159.892 59.2823 159.953 59.5048 159.832C59.7003 159.731 59.8891 159.596 60.1183 159.569C60.2195 159.555 60.2397 159.495 60.2128 159.4C60.1184 159.07 60.3611 159.009 60.5836 158.982C61.3252 158.894 61.986 158.645 62.5051 158.092C62.6602 157.93 62.8153 158.018 62.9771 158.079C63.5502 158.274 64.1301 158.429 64.7436 158.423C65.1414 158.423 65.4988 158.389 65.7887 158.072C65.8561 158.005 65.9505 157.91 66.0584 158.011C66.1393 158.085 66.1191 158.193 66.0584 158.261C65.1347 159.319 65.2021 160.648 65.074 161.922C64.9998 162.616 64.8582 163.297 64.8987 164.005C64.9257 164.551 65.1549 164.686 65.6269 164.41C65.6943 164.369 65.7617 164.322 65.8292 164.295C65.8696 164.282 65.937 164.275 65.9708 164.295C66.0382 164.342 66.0045 164.41 65.9708 164.47C65.9438 164.511 65.9101 164.558 65.8696 164.592C65.2898 165.071 64.7099 165.543 64.1368 166.021C64.0155 166.122 63.9008 166.116 63.7862 166.021C63.4154 165.718 63.0985 165.381 63.0041 164.875C62.9299 164.464 62.849 164.444 62.4984 164.727C61.8511 165.246 61.1904 165.745 60.5701 166.291C60.2802 166.547 60.0577 166.513 59.7812 166.304C58.7968 165.583 58.5811 164.47 59.2216 163.284C59.6261 162.535 60.1925 161.908 60.7926 161.315C60.9746 161.133 61.0151 160.978 60.9072 160.762C60.7791 160.506 60.6577 160.243 60.5296 159.987C60.4285 159.778 60.2937 159.771 60.0779 159.859C59.5992 160.054 59.2553 160.358 59.0463 160.83C58.4934 162.09 57.9271 163.351 57.3674 164.612C57.3405 164.673 57.3203 164.733 57.3 164.801C57.1584 165.266 57.2326 165.367 57.7046 165.367C57.9068 165.367 58.1091 165.367 58.3248 165.367H58.3114ZM60.5499 163.021C60.5229 164.005 60.9004 164.484 61.3994 164.902C61.5275 165.01 61.6556 165.01 61.7905 164.902C62.1411 164.632 62.4984 164.363 62.8558 164.1C62.9434 164.032 63.0108 163.951 63.0243 163.843C63.0783 163.324 63.1322 162.805 63.1794 162.279C63.1929 162.117 63.1254 161.983 62.9636 161.949C62.4647 161.841 62.0062 161.591 61.5005 161.511C61.305 161.477 61.1567 161.504 61.069 161.679C60.8128 162.198 60.5499 162.711 60.5431 163.028L60.5499 163.021ZM60.9814 159.339C60.6847 159.306 60.5634 159.339 60.7184 159.643C60.9409 160.074 61.1162 160.526 61.3118 160.964C61.3522 161.059 61.4062 161.16 61.514 161.194C61.9927 161.322 62.4715 161.457 62.9502 161.571C63.1187 161.612 63.2603 161.564 63.2805 161.349C63.3277 160.89 63.3817 160.438 63.4289 159.987C63.4423 159.859 63.4154 159.751 63.2603 159.731C62.4849 159.602 61.7163 159.468 60.9814 159.346V159.339Z" fill="#737300"/>
<path d="M80.4602 76.3548C79.7253 77.5549 78.9634 78.6944 78.1476 79.8069C77.1969 81.1014 76.1653 82.3218 75.0124 83.441C73.9943 84.4389 72.8885 85.3289 71.7019 86.1043C71.2838 86.3807 70.8658 86.6437 70.4815 86.9673C70.0635 87.3179 69.5578 87.4865 69.0521 87.682C68.4655 87.9113 67.9126 88.2147 67.3462 88.4911C66.3888 88.9631 65.4044 89.3541 64.3998 89.698C63.9144 89.8666 63.4087 89.934 62.903 90.0351C62.667 90.0823 62.5457 90.0351 62.5457 89.7452C62.5591 88.2686 62.5524 86.7988 62.5457 85.3222C62.5457 85.1132 62.6266 85.0188 62.8086 84.9513C64.8313 84.1827 66.699 83.1241 68.5127 81.9442C69.6791 81.1823 70.7242 80.2991 71.6951 79.3147C71.985 79.0248 72.2143 78.6876 72.4638 78.364C72.6121 78.1685 72.7807 78.0808 73.0234 78.0539C75.3158 77.7976 77.561 77.3459 79.7118 76.4964C79.9343 76.4087 80.1636 76.3008 80.4535 76.3413L80.4602 76.3548Z" fill="#737300"/>
<path d="M24.9222 137.927C24.9425 137.38 24.8548 136.983 24.7469 136.592C24.6997 136.416 24.5784 136.187 24.72 136.072C24.8751 135.958 25.0908 136.113 25.2594 136.201C26.1629 136.686 27.0596 137.171 27.9698 137.65C28.5699 137.967 29.7161 137.596 30.033 136.983C30.2353 136.585 30.087 136.207 29.9184 135.85C29.7566 135.513 29.5206 135.23 29.2172 135.014C29.1093 134.94 29.0014 134.859 28.907 134.771C28.8126 134.69 28.7385 134.569 28.7991 134.454C28.8733 134.313 29.0082 134.407 29.1093 134.448C30.2218 134.906 31.1388 135.607 31.5568 136.767C31.8804 137.657 31.7658 138.311 30.9095 138.796C30.8151 138.85 30.6937 138.877 30.6937 138.999C30.6937 139.113 30.8353 139.093 30.896 139.147C31.4152 139.612 31.9479 139.518 32.4873 139.201C32.6356 139.113 32.7974 139.059 32.9592 139.005C33.1277 138.951 33.2626 139.053 33.3098 139.194C33.3772 139.383 33.1952 139.383 33.0738 139.423C32.8851 139.491 32.703 139.558 32.521 139.632C32.4198 139.673 32.2647 139.686 32.2647 139.835C32.2647 139.97 32.4063 140.01 32.5142 140.064C33.0131 140.3 33.4986 140.57 34.011 140.765C34.5504 140.967 34.7527 141.365 34.7527 141.884C34.7594 142.727 34.6718 143.57 34.429 144.379C34.3077 144.797 34.0177 145.107 33.6334 145.323C32.8918 145.755 32.0895 146.051 31.3073 146.388C30.2892 146.813 29.2644 147.224 28.2463 147.649C28.0238 147.744 27.8282 147.744 27.6057 147.649C26.7697 147.305 25.9404 146.934 25.0706 146.672C24.7065 146.564 24.4638 146.334 24.3829 145.937C24.2413 145.242 23.9648 144.581 23.6884 143.927C23.4996 143.482 23.4052 143.422 22.94 143.61C22.2725 143.88 21.605 144.163 20.951 144.467C20.688 144.588 20.5397 144.561 20.3711 144.305C19.9463 143.671 19.4879 143.064 19.0429 142.437C18.7327 142.006 18.7529 141.965 19.2317 141.777C19.9396 141.493 20.6408 141.197 21.342 140.913C21.6117 140.806 21.6994 140.718 21.4701 140.415C20.7352 139.457 19.8115 138.776 18.7327 138.277C18.6046 138.217 18.49 138.136 18.5372 137.981C18.5911 137.812 18.7462 137.852 18.8743 137.859C19.1575 137.866 19.3935 138.028 19.6564 138.115C20.8161 138.506 21.8747 139.08 22.7714 139.916C23.0074 140.138 23.2097 140.145 23.4659 139.976C23.9379 139.666 24.43 139.39 24.6997 138.85C24.8683 138.506 24.9222 138.149 24.9155 137.913L24.9222 137.927ZM33.0468 142.208C33.0199 141.884 32.9794 141.541 32.9592 141.203C32.9255 140.57 32.1366 139.963 31.5096 140.111C30.9432 140.246 30.4375 140.536 29.9049 140.738C29.3453 140.954 29.3183 141.008 29.3857 141.601C29.3925 141.669 29.4127 141.729 29.4262 141.79C29.7228 142.943 30.451 143.739 31.4893 144.285C31.6647 144.379 31.8063 144.339 31.9681 144.258C32.8244 143.84 32.9929 143.064 33.0468 142.208ZM20.7419 144.049C20.8498 144.015 20.9307 144.002 21.0049 143.975C22.0095 143.563 23.0209 143.159 24.0255 142.741C26.21 141.844 28.3879 140.94 30.5724 140.037C30.7477 139.963 31.0309 139.956 31.0376 139.747C31.0376 139.552 30.7612 139.558 30.6061 139.471C30.5387 139.43 30.4713 139.39 30.4106 139.343C30.2285 139.187 30.0465 139.201 29.8307 139.289C26.7427 140.576 23.6547 141.851 20.5666 143.138C20.4453 143.192 20.1689 143.186 20.2565 143.401C20.3576 143.644 20.4723 143.927 20.7487 144.042L20.7419 144.049ZM26.264 142.269C25.8864 142.363 25.556 142.552 25.2122 142.707C24.9694 142.815 24.9492 142.956 25.0908 143.172C25.401 143.637 25.5965 144.143 25.7785 144.669C25.9673 145.229 26.0617 145.815 26.2101 146.382C26.264 146.584 26.3381 146.712 26.5539 146.597C27.1742 146.28 27.8147 146.017 28.4553 145.755C28.6306 145.68 28.752 145.566 28.7317 145.33C28.5969 143.853 27.7136 142.936 26.4528 142.309C26.3988 142.282 26.3314 142.275 26.2707 142.255L26.264 142.269ZM31.159 144.602C31.159 144.534 31.1388 144.527 30.8758 144.339C29.9184 143.658 29.116 142.862 28.9609 141.628C28.9137 141.224 28.7317 141.217 28.4418 141.332C27.9901 141.507 27.5383 141.696 27.0933 141.871C26.9989 141.905 26.8641 141.884 26.8641 142.033C26.8641 142.154 26.9719 142.208 27.0663 142.255C28.2125 142.909 28.9138 143.867 29.0688 145.195C29.0958 145.417 29.2104 145.505 29.4194 145.417C29.9588 145.208 30.4915 144.986 31.0241 144.763C31.0983 144.736 31.1725 144.696 31.1657 144.595L31.159 144.602ZM26.0145 138.742C25.9943 138.817 26.028 138.938 26.1898 138.891C26.7562 138.736 27.2956 138.5 27.8147 138.237C27.9833 138.149 27.9361 138.041 27.7676 137.974C27.363 137.812 26.9989 137.589 26.6213 137.374C26.5135 137.306 26.3853 137.259 26.2572 137.232C26.1089 137.198 25.9875 137.232 26.0482 137.434C26.1763 137.852 26.1291 138.264 26.0078 138.742H26.0145Z" fill="#737300"/>
<path d="M51.5282 12.4371C51.1979 10.9335 51.6631 9.67271 52.8902 8.96476C53.6925 8.50627 54.5421 8.22308 55.4793 8.28377C55.7827 8.30399 56.0187 8.15566 56.2142 7.96687C56.3963 7.79157 56.8008 7.79832 56.7738 7.50839C56.7469 7.24544 56.3693 7.27916 56.1603 7.15779C55.4186 6.71954 54.832 6.16665 54.6365 5.29688C54.4814 4.62938 54.7106 4.06301 55.2096 3.79332C55.749 3.50339 56.6323 3.63824 57.0435 4.06976C57.4009 4.45408 57.4009 5.26317 57.0435 5.72166C56.8952 5.91719 56.5581 6.08575 56.6188 6.29477C56.6929 6.53075 57.057 6.40939 57.293 6.46333C58.7494 6.80045 59.99 6.36893 61.0418 5.34408C61.4666 4.92605 61.9115 4.52151 62.3296 4.07651C62.2352 5.0609 62.0531 5.99809 61.1699 6.60491C60.6507 6.96226 60.0911 7.27915 59.4708 7.40726C58.8572 7.53537 58.4527 7.98037 57.9537 8.29726C57.8391 8.37143 57.8728 8.45233 57.9537 8.51975C58.0279 8.57369 58.1156 8.60741 58.1898 8.65461C58.9516 9.14681 59.4438 9.79407 59.5517 10.7515C59.7 12.073 59.754 13.4013 59.9158 14.716C60.0304 15.6667 60.1113 16.6241 60.2125 17.5816C60.2394 17.8108 60.2125 18.0265 60.0844 18.2221C59.8416 18.6199 59.491 18.721 59.0798 18.5187C58.7224 18.3434 58.4999 18.0333 58.2774 17.7164C57.1042 16.0308 55.9378 14.3452 54.7646 12.6663C54.4679 12.2348 54.2724 12.2416 53.9825 12.7001C53.5847 13.3271 53.4431 14.0283 53.4296 14.77C53.4161 15.5521 53.4094 15.5386 54.1713 15.451C54.7848 15.3768 55.4119 15.3363 55.9513 15.7544C56.5513 16.2196 56.8008 17.1028 56.5581 17.8512C56.3288 18.5457 55.5872 19.0919 54.8185 19.1188C53.8207 19.1593 53.0925 18.721 52.661 17.8243C51.7103 15.8555 51.6631 13.8732 52.661 11.9112C53.3757 10.4953 55.0612 10.3604 56.0052 11.6415C56.7064 12.5922 57.4413 13.5226 58.0482 14.5407C58.1088 14.6486 58.183 14.8172 58.3313 14.7497C58.4662 14.6891 58.3651 14.534 58.3583 14.4261C58.2437 13.3406 58.156 12.2551 58.0009 11.1763C57.8661 10.2323 57.5897 9.99635 56.6525 9.81431C54.9534 9.47719 53.524 10.0503 52.2564 11.1291C51.8519 11.4729 51.6159 11.9179 51.5148 12.4438L51.5282 12.4371ZM54.7039 16.5634C54.3128 16.5634 53.9555 16.8938 53.9488 17.2579C53.942 17.5748 54.3331 17.9187 54.7039 17.9187C55.0478 17.9187 55.4456 17.5344 55.4321 17.2175C55.4119 16.8331 55.1017 16.55 54.7039 16.5567V16.5634ZM56.5514 4.94628C56.5514 4.64288 56.2884 4.46756 55.8569 4.46756C55.54 4.46756 55.4119 4.68332 55.3714 4.93954C55.331 5.17552 55.6613 5.45195 55.9647 5.45869C56.2816 5.46544 56.5514 5.22947 56.5514 4.94628Z" fill="#737300"/>
<path d="M19.5153 44.9073C18.3488 44.6781 17.3105 43.4172 17.2498 42.298C17.1891 41.1653 17.4386 40.1337 18.0454 39.183C18.2072 38.9268 18.2073 38.6706 18.1803 38.3874C18.1196 37.7873 18.0926 37.1805 18.0387 36.5804C18.0185 36.3714 18.0859 36.2635 18.3151 36.2568C18.5107 36.2568 18.7197 36.25 18.9017 36.1894C19.3467 36.041 19.4007 36.2703 19.3535 36.6209C19.3535 36.6613 19.3535 36.7018 19.3535 36.7422C19.3535 37.3895 19.3669 37.3963 19.9468 37.1535C20.7626 36.8164 21.5717 36.7962 22.3808 37.2075C24.3631 38.2121 26.3521 39.1965 28.3344 40.1876C28.6512 40.3494 28.9007 40.5652 28.9951 40.9225C29.103 41.3338 28.9007 41.7451 28.4827 41.8395C28.1254 41.9204 27.7545 41.9811 27.3904 41.9946C25.6307 42.062 23.8709 42.116 22.1111 42.1766C21.8077 42.1901 21.511 42.2306 21.2076 42.2508C20.8638 42.2778 20.7896 42.4665 20.9042 42.7699C21.1806 43.4712 21.6998 43.9701 22.2864 44.4016C22.5426 44.5904 22.8326 44.8938 23.082 44.8668C23.3922 44.8331 23.3113 44.3544 23.4529 44.0847C23.7225 43.5925 23.9855 43.1138 24.5586 42.9183C25.9543 42.4261 27.2421 43.4779 27.0466 44.941C26.8915 46.067 26.1363 46.7884 24.9969 46.7682C22.6775 46.7278 20.911 45.6355 19.6367 43.7409C19.2928 43.2284 19.1714 42.6216 19.3737 42.0013C19.6434 41.1787 20.2233 40.727 21.1065 40.6933C22.3539 40.6461 23.5877 40.4168 24.8418 40.4978C24.9092 40.4978 24.9834 40.5045 24.9969 40.4236C25.0103 40.3562 24.9632 40.2955 24.9025 40.2618C24.7002 40.1471 24.4912 40.0258 24.2822 39.9179C23.4124 39.4864 22.5426 39.0549 21.6661 38.6301C21.0728 38.3402 20.675 38.3941 20.1963 38.8594C18.8478 40.1809 18.4432 41.8058 18.7264 43.633C18.8006 44.1184 19.0973 44.5162 19.5018 44.8938L19.5153 44.9073ZM25.1587 44.0578C24.8148 44.0578 24.4777 44.4353 24.4777 44.7994C24.4777 45.1703 24.8216 45.5276 25.1722 45.5276C25.5093 45.5276 25.8869 45.1163 25.8734 44.759C25.8599 44.3814 25.5295 44.051 25.1587 44.0578Z" fill="#737300"/>
<path d="M12.8406 105.415C14.7487 105.388 16.2388 106.352 17.621 107.566C17.8839 107.795 18.1536 108.037 18.3424 108.348C18.3896 108.422 18.457 108.503 18.5649 108.469C18.6863 108.429 18.6458 108.321 18.6323 108.233C18.43 106.709 17.7154 105.543 16.2657 104.902C16.1242 104.842 15.9758 104.781 15.8342 104.707C15.7466 104.666 15.6791 104.592 15.7129 104.484C15.7533 104.37 15.8545 104.397 15.9488 104.41C16.5759 104.525 17.1692 104.727 17.7086 105.071C19.2459 106.055 20.0348 107.505 20.3112 109.285C20.5809 111.051 20.5135 112.858 20.8438 114.618C20.9787 115.326 21.181 115.973 21.8822 116.331C22.0035 116.391 22.1653 116.499 22.0844 116.661C22.0103 116.803 21.8485 116.708 21.7271 116.688C20.2235 116.425 19.4954 115.346 19.2391 114.031C19.0301 112.973 19.0504 112.966 18.012 113.142C17.8165 113.175 17.621 113.189 17.4254 113.189C15.5578 113.189 13.6901 113.189 11.8225 113.189C11.3101 113.189 11.2966 113.216 11.5258 113.654C12.0382 114.632 12.7664 115.407 13.6969 116C13.9059 116.135 14.1149 116.277 14.3104 116.432C14.3981 116.499 14.5464 116.573 14.4723 116.708C14.4183 116.803 14.2767 116.755 14.1756 116.728C13.7845 116.607 13.3935 116.492 13.0429 116.29C11.1617 115.218 9.90764 113.667 9.34802 111.544C9.05135 110.411 8.95696 109.285 9.22666 108.152C9.57727 106.682 10.9055 105.287 12.8608 105.401L12.8406 105.415ZM14.4655 109.689C15.8072 109.764 17.1153 109.548 18.43 109.595C18.5649 109.595 18.7537 109.662 18.8144 109.494C18.8818 109.319 18.6997 109.217 18.5986 109.103C17.6951 108.112 16.5422 107.532 15.2814 107.154C13.5418 106.628 12.1394 107.087 11.1348 108.449C10.9123 108.752 10.9527 108.941 11.2292 109.177C11.6539 109.541 12.1326 109.689 12.6788 109.683C13.2856 109.683 13.8857 109.683 14.4588 109.683L14.4655 109.689ZM14.7419 112.791C14.7419 112.791 14.7419 112.777 14.7419 112.771C15.8207 112.771 16.8995 112.771 17.9783 112.771C19.0032 112.771 18.9897 112.757 18.9897 111.766C18.9897 111.442 18.8751 111.375 18.5717 111.375C16.8995 111.388 15.2341 111.375 13.562 111.382C13.2923 111.382 13.0564 111.328 12.8339 111.152C12.2136 110.667 11.627 110.141 11.0876 109.568C11.0067 109.487 10.9325 109.366 10.7977 109.399C10.6561 109.433 10.6763 109.581 10.656 109.696C10.474 110.64 10.5886 111.55 10.8988 112.447C10.9864 112.703 11.1348 112.791 11.391 112.791C12.5102 112.791 13.6227 112.791 14.7419 112.791Z" fill="#737300"/>
<path d="M51.8459 97.3837C52.2437 97.8894 52.6348 98.3951 53.0393 98.894C53.7203 99.7368 54.5699 100.404 55.5677 100.789C56.0802 100.984 56.3566 101.281 56.6398 101.712C57.3073 102.717 58.231 103.425 59.3367 103.931C61.1774 104.767 63.099 105.414 64.9195 106.297C67.4816 107.545 69.8954 109.062 71.79 111.233C72.9092 112.507 73.8801 113.903 74.4128 115.555C74.5476 115.973 74.5678 116.262 74.5072 116.761C74.3453 116.795 74.3116 116.66 74.2644 116.566C73.6441 115.359 72.9429 114.206 72.0866 113.154C71.2641 112.15 70.192 111.415 69.2211 110.572C67.5692 109.142 65.5802 108.414 63.4901 107.909C61.4606 107.423 59.4514 106.857 57.5298 106.034C56.0532 105.4 54.907 104.349 53.9023 103.128C52.8977 101.908 52.2235 100.532 51.8729 98.9952C51.7515 98.4693 51.7448 97.9434 51.8392 97.3972L51.8459 97.3837Z" fill="#737300"/>
<path d="M73.7178 10.757C72.6255 11.1144 71.5332 11.4852 70.4342 11.8291C70.1106 11.9302 70.151 12.0246 70.3398 12.2134C70.4814 12.355 70.6095 12.5033 70.7309 12.6584C71.1489 13.1978 71.2703 13.7506 71.0478 14.4519C70.4342 16.3532 69.9083 18.2748 69.342 20.1897C69.1532 20.8167 69.1532 20.81 68.5464 20.6347C66.6787 20.0953 64.8178 19.5626 62.9502 19.0367C62.7479 18.9828 62.6872 18.8749 62.7142 18.6996C62.7681 18.376 62.822 18.0523 62.8962 17.7354C62.9367 17.5534 63.0918 17.5601 63.2468 17.5871C64.0222 17.7085 64.0357 17.7085 64.2582 16.9466C64.5818 15.8543 64.8448 14.735 65.2493 13.6697C65.4313 13.191 65.5864 12.7056 65.91 12.2943C66.2 11.9235 66.5573 11.6335 67.0091 11.492C67.2585 11.411 67.2855 11.2964 67.1237 11.1346C66.8203 10.8447 66.5169 10.548 66.1596 10.3255C66.0045 10.2311 65.8494 10.2109 65.6673 10.2513C65.2156 10.3457 64.8515 10.5885 64.4874 10.8649C64.5211 10.9054 64.5346 10.9458 64.5683 10.966C65.3841 11.4313 65.6067 11.9302 65.3774 12.8202C65.2695 13.245 64.5616 13.69 64.0559 13.6428C62.586 13.5079 62.1073 12.564 62.5388 11.3301C63.085 9.78613 64.0222 9.01074 65.8561 8.87589C66.4158 8.83544 66.8877 9.0512 67.3125 9.38832C67.7777 9.75241 68.2294 10.1367 68.661 10.5413C68.9104 10.7705 69.1464 10.8312 69.4768 10.7301C70.1443 10.5345 70.8253 10.3929 71.4928 10.2041C71.776 10.1232 72.0322 10.1367 72.3019 10.2244C72.7739 10.3727 73.2458 10.5143 73.7178 10.6559C73.7178 10.6896 73.711 10.7233 73.7043 10.757H73.7178ZM69.4364 13.9192C69.3757 13.3394 69.0318 12.8809 68.6475 12.4426C68.5463 12.328 68.3845 12.3482 68.2766 12.4089C67.7305 12.6988 67.1439 12.9753 66.9349 13.6158C66.4697 15.0519 66.0449 16.4948 65.6067 17.9377C65.5392 18.1602 65.6134 18.2816 65.8426 18.3422C66.4764 18.5041 67.1102 18.6726 67.7373 18.8547C67.9867 18.9288 68.0946 18.8614 68.162 18.6119C68.452 17.5466 68.7554 16.4881 69.052 15.4295C69.1869 14.9373 69.3757 14.4586 69.4296 13.9125L69.4364 13.9192ZM64.5414 12.3415C64.5548 11.9976 64.2784 11.6875 63.948 11.6807C63.6446 11.6807 63.3277 11.9504 63.321 12.2269C63.3142 12.5168 63.6648 12.8472 63.975 12.8472C64.2514 12.8472 64.5346 12.5977 64.5414 12.3482V12.3415Z" fill="#737300"/>
<path d="M77.3923 156.42C77.4733 157.378 76.8192 158.403 76.2124 159.427C75.491 160.655 74.6347 161.787 73.7717 162.913C73.4885 163.291 73.1918 163.668 73.0637 164.134C72.9896 164.397 72.9154 164.693 73.1783 164.902C73.4683 165.138 73.7784 165.341 74.183 165.192C74.9516 164.909 75.6191 164.525 75.8011 163.635C75.8214 163.54 75.882 163.439 75.9427 163.358C76.0371 163.244 76.172 163.156 76.327 163.237C76.4821 163.325 76.5158 163.486 76.4551 163.648C76.3742 163.891 76.2461 164.113 76.0708 164.289C75.3629 165.024 74.5808 165.637 73.4683 165.489C72.9356 165.415 72.6794 165.084 72.6659 164.538C72.6524 164.167 72.7199 163.81 72.8952 163.473C73.239 162.812 73.2727 162.138 73.0435 161.416C72.6659 160.257 72.3625 159.07 72.0119 157.904C71.9243 157.614 71.8366 157.324 71.6073 157.101C71.3983 156.906 71.2163 156.919 71.068 157.175C70.8792 157.506 70.6364 157.809 70.5083 158.167C70.4005 158.477 70.1914 158.504 69.915 158.43C69.5846 158.335 69.2475 158.274 68.9239 158.187C68.6879 158.119 68.58 158.16 68.607 158.436C68.7351 159.758 68.843 161.079 68.9778 162.401C69.0385 163.008 69.052 163.014 69.6588 163.102C69.9824 163.149 70.3128 163.156 70.6432 163.176C70.9061 163.19 71.014 162.974 71.1758 162.819C71.3242 162.677 71.459 162.306 71.6478 162.475C71.8568 162.671 71.5265 162.886 71.3714 163.035C70.8994 163.48 70.5016 163.985 70.0701 164.464C69.8611 164.7 69.6318 164.781 69.3015 164.7C68.58 164.531 67.8383 164.572 67.1102 164.66C67.0225 164.673 66.9146 164.72 66.854 164.639C66.7933 164.552 66.8742 164.464 66.9281 164.397C67.218 164.032 67.272 163.614 67.2315 163.169C67.1034 161.794 66.9888 160.419 66.8405 159.05C66.8 158.672 66.8472 158.403 67.1978 158.18C67.744 157.843 68.1215 157.317 68.4721 156.791C68.6744 156.488 68.9036 156.447 69.207 156.515C69.6183 156.609 70.0296 156.697 70.4342 156.791C70.7443 156.865 70.9466 156.791 71.0882 156.474C71.2568 156.076 71.4927 155.706 71.7017 155.328C71.7692 155.207 71.8433 155.112 71.9917 155.085C72.4636 155.004 73.1649 155.389 73.3536 155.84C73.3941 155.948 73.4008 156.103 73.5424 156.11C73.6773 156.11 73.711 155.962 73.7649 155.867C74.2167 155.065 74.6819 154.276 75.1067 153.454C75.2617 153.15 75.4438 153.17 75.673 153.292C76.799 153.878 77.3789 154.802 77.3991 156.407L77.3923 156.42ZM75.9899 157.452C76.0641 156.535 75.5449 155.901 74.7965 155.389C74.5336 155.207 74.365 155.294 74.2302 155.551C74.129 155.746 74.0414 155.962 73.8998 156.13C73.6233 156.474 73.6233 156.832 73.738 157.236C74.0481 158.322 74.3246 159.414 74.6212 160.506C74.6482 160.614 74.6212 160.776 74.7561 160.803C74.8909 160.83 74.9449 160.668 74.9988 160.58C75.5719 159.636 75.9764 158.632 75.9832 157.445L75.9899 157.452Z" fill="#737300"/>
<path d="M87.6751 39.6884C87.574 38.8659 88.3359 38.1512 89.0168 37.9489C89.772 37.7264 90.6148 38.0365 91.0463 38.704C91.1677 38.8996 91.289 38.9535 91.498 38.8389C92.4555 38.3197 93.4196 37.8073 94.3838 37.3016C94.5726 37.2005 94.5321 37.0387 94.5591 36.8971C94.7546 35.8587 95.6716 35.225 96.6627 35.4475C97.3842 35.6093 97.8899 36.2431 97.9708 37.0859C98.0382 37.7938 97.6067 38.4613 96.9459 38.7512C96.4942 38.9468 96.0626 38.9602 95.6176 38.7647C95.3345 38.6433 95.0918 38.6771 94.8086 38.8456C93.9388 39.3581 93.0421 39.8368 92.1453 40.2952C91.7273 40.511 91.4711 40.7739 91.4239 41.2729C91.3565 41.9808 91.2216 42.6753 91.1407 43.3833C91.0261 44.3677 91.8015 45.0014 92.7454 44.6711C93.6152 44.3609 94.3771 43.8283 95.1862 43.3968C96.683 42.6079 98.1663 41.7786 99.6429 40.9493C99.9463 40.7807 100.122 40.747 100.256 41.1246C100.344 41.3808 100.499 41.6168 100.627 41.8595C100.742 42.082 100.668 42.2168 100.452 42.3314C98.5843 43.3293 96.7234 44.3272 94.8625 45.3318C94.4445 45.5543 94.0265 45.7768 93.6287 46.033C93.2174 46.296 92.7926 46.3162 92.3408 46.2218C91.7812 46.1005 91.2553 45.9117 90.7901 45.5678C90.1024 45.0621 89.8057 44.3879 89.9068 43.5451C89.9608 43.0596 89.9675 42.5742 90.1226 42.1022C90.1968 41.8662 90.1496 41.819 89.9001 41.819C88.8213 41.8325 88.0459 41.2392 87.7291 40.2143C87.6751 40.0323 87.6886 39.8503 87.6819 39.6682L87.6751 39.6884ZM96.9796 37.2342C96.9796 36.742 96.656 36.4049 96.1773 36.4116C95.8267 36.4116 95.5233 36.715 95.53 37.0589C95.5368 37.4432 95.9345 37.8815 96.2919 37.895C96.6223 37.9084 96.9796 37.5646 96.9796 37.2342ZM89.6102 40.538C90.0215 40.538 90.2844 40.275 90.2777 39.8839C90.2777 39.4592 89.9136 39.0884 89.5158 39.0951C89.1449 39.0951 88.8213 39.412 88.8213 39.7626C88.8213 40.1267 89.2461 40.5447 89.6102 40.538Z" fill="#737300"/>
<path d="M81.1009 147.986C81.0874 146.941 81.3301 145.902 81.5998 144.871C81.6133 144.81 81.6403 144.743 81.6673 144.689C81.7077 144.608 81.7482 144.507 81.8628 144.54C81.9909 144.581 81.9369 144.689 81.9234 144.776C81.7818 145.457 81.6807 146.145 81.6942 146.846C81.7212 148.653 82.3887 150.116 83.9529 151.101C84.2226 151.269 84.526 151.371 84.8294 151.438C85.0789 151.499 85.2205 151.451 85.2272 151.135C85.2272 150.75 85.1531 150.413 84.9306 150.096C84.1215 148.977 83.3191 147.858 82.5168 146.738C82.4022 146.577 82.3685 146.401 82.4022 146.213C82.6516 144.817 82.9281 143.428 83.1101 142.019C83.1573 141.682 83.3393 141.473 83.6495 141.304C84.526 140.839 85.3216 140.259 85.9959 139.531C86.0903 139.423 86.1847 139.234 86.3735 139.322C86.569 139.409 86.4678 139.598 86.4544 139.747C86.4206 140.192 86.3802 140.637 86.36 141.082C86.3465 141.351 86.2386 141.547 86.0161 141.709C85.443 142.133 84.8227 142.477 84.1619 142.74C83.6428 142.949 83.6226 142.99 83.9395 143.435C85.2677 145.302 86.6027 147.157 87.9309 149.017C88.1534 149.328 88.3759 149.638 88.5984 149.948C88.7603 150.17 88.8951 150.137 89.0637 149.948C90.0885 148.842 90.6346 147.514 90.8976 146.044C90.9313 145.835 90.8504 145.457 91.1538 145.478C91.4774 145.498 91.3224 145.855 91.3291 146.064C91.3898 148.141 90.8032 150.022 89.4412 151.6C88.4299 152.773 87.2028 153.582 85.5644 153.562C84.2766 153.542 83.2787 152.948 82.4494 152.018C81.438 150.878 81.0672 149.503 81.0941 147.979L81.1009 147.986ZM85.5846 151.101C85.5576 151.633 85.5644 151.633 86.0431 151.607C86.805 151.559 87.4657 151.256 88.0793 150.845C88.4568 150.588 88.4703 150.508 88.2006 150.123C87.1353 148.626 86.0633 147.13 84.998 145.633C84.5125 144.945 84.0338 144.257 83.5484 143.57C83.4877 143.489 83.4338 143.313 83.2989 143.495C83.0966 143.772 83.1304 144.588 83.3461 144.884C83.9462 145.714 84.5463 146.55 85.1531 147.372C85.5509 147.905 85.7936 148.465 85.7464 149.159C85.706 149.827 85.6318 150.494 85.5846 151.108V151.101Z" fill="#737300"/>
<path d="M23.3451 32.8462C23.3518 32.2799 23.2304 31.727 23.3046 31.1539C23.5001 29.6504 24.6868 28.3963 26.1634 28.0524C27.1613 27.8232 27.9838 28.0929 28.7862 28.6592C30.3235 29.738 31.8877 30.7831 33.4385 31.8484C33.7554 32.0641 34.0588 32.2934 34.3757 32.5024C34.6251 32.6642 34.6319 32.8125 34.4498 33.0418C34.2543 33.2913 34.0992 33.5677 33.9374 33.8374C33.8363 34.0059 33.7486 34.0532 33.5666 33.9183C32.4945 33.1564 31.4158 32.408 30.337 31.6596C29.4605 31.0528 28.5367 30.5134 27.7074 29.8526C26.6219 28.9896 25.6847 29.6099 24.997 30.2572C24.4913 30.7359 24.5924 31.3899 24.4845 31.9832C24.4576 32.1383 24.4643 32.3001 24.4576 32.4552C24.4576 32.5428 24.3969 32.6575 24.5183 32.6912C24.6262 32.7182 24.6733 32.6103 24.7205 32.5361C24.8958 32.2597 25.0644 31.9765 25.2397 31.7C25.3746 31.491 25.5296 31.3966 25.7454 31.5989C25.7724 31.6259 25.8128 31.6461 25.8398 31.6663C26.0285 31.8079 26.278 31.9091 26.3994 32.0911C26.5342 32.3001 26.2578 32.4754 26.2039 32.6912C26.0623 33.2373 26.0892 33.3384 26.5747 33.6688C27.7816 34.4847 28.9952 35.2937 30.1886 36.1365C31.146 36.8108 31.3011 37.8694 30.6269 38.7391C30.0673 39.4538 29.2312 39.6493 28.4963 39.2313C27.7141 38.7863 27.4377 37.9503 27.7883 37.094C28.0041 36.5613 27.9973 36.5748 27.5321 36.2647C26.9995 35.9073 26.4736 35.5297 25.9477 35.1589C25.6443 34.9432 25.388 34.6802 25.2734 34.3094C25.2464 34.2285 25.233 34.1071 25.1049 34.1206C25.0172 34.1341 24.9902 34.215 24.9633 34.2959C24.943 34.3566 24.9161 34.4172 24.8823 34.4779C24.4508 35.3544 24.2081 35.3949 23.5137 34.7072C23.3653 34.5656 23.3451 34.3903 23.3451 34.2015C23.3451 33.7565 23.3451 33.3047 23.3451 32.8597V32.8462ZM30.0201 37.6671C30.0201 37.3569 29.6897 36.9928 29.3795 36.9793C29.0019 36.9591 28.6042 37.3637 28.6109 37.7615C28.6109 38.0581 28.975 38.4155 29.2784 38.429C29.6695 38.4424 30.0133 38.0851 30.0201 37.6671Z" fill="#737300"/>
<path d="M44.2195 11.955C45.4668 11.928 46.3636 12.427 46.9974 13.5327C48.1233 15.5083 49.3235 17.4433 50.4899 19.3919C50.7124 19.756 50.6787 19.8369 50.2944 20.0459C50.0989 20.1538 49.8899 20.2617 49.7415 20.4167C49.4651 20.6999 49.3168 20.5988 49.1549 20.3089C48.683 19.493 48.184 18.6839 47.712 17.8614C46.9839 16.6005 46.2287 15.3464 45.4466 14.1126C44.6915 12.9192 42.7833 13.0001 42.1091 14.2542C41.9136 14.625 41.745 15.0161 41.5023 15.3599C41.4551 15.4206 41.3809 15.4948 41.4484 15.5689C41.5293 15.6566 41.6169 15.5824 41.6911 15.5352C41.981 15.3532 42.2642 15.1644 42.5474 14.9756C42.7699 14.8273 42.9587 14.8205 43.08 15.1037C43.1137 15.1779 43.1609 15.2386 43.2081 15.2992C43.4643 15.6094 43.4846 15.8521 43.1272 16.1488C42.6485 16.5466 42.6553 16.7354 42.9654 17.268C43.6666 18.4412 44.3678 19.6144 45.069 20.7876C45.2376 21.0708 45.3994 21.3674 45.4534 21.6911C45.568 22.3653 45.3927 22.9519 44.8263 23.3699C44.2465 23.8014 43.6464 24.0037 42.925 23.6126C42.1631 23.1946 41.6169 21.8124 42.5676 20.9629C43.0665 20.5179 43.0598 20.5044 42.6957 19.9178C42.3855 19.4189 42.0619 18.9199 41.7652 18.4075C41.5832 18.0906 41.4281 17.7535 41.5158 17.3624C41.5765 17.0927 41.4079 17.0995 41.2394 17.2006C41.0034 17.3355 40.7607 17.4771 40.5382 17.6456C40.3763 17.767 40.2684 17.7602 40.1471 17.5984C39.7897 17.1197 39.5268 16.6612 39.9515 16.0477C40.3291 15.5083 40.4505 14.8408 40.7067 14.234C41.3675 12.6899 42.5676 11.982 44.206 11.955H44.2195ZM44.4892 22.0956C44.4892 21.7045 44.2195 21.3944 43.8622 21.3876C43.4374 21.3876 43.0463 21.7113 43.0396 22.0686C43.0396 22.4125 43.3902 22.8035 43.7206 22.817C44.1049 22.8305 44.4892 22.4664 44.4892 22.0956Z" fill="#737300"/>
<path d="M76.2398 15.7948C76.5702 16.0308 76.8871 16.2802 77.2377 16.4893C77.5074 16.6578 77.5816 16.8062 77.3591 17.0758C77.1905 17.2781 77.1096 17.5883 76.9073 17.7029C76.6848 17.831 76.4556 17.5343 76.2196 17.4534C75.7814 17.3051 75.5251 17.4669 75.2892 17.8108C74.2239 19.375 73.1451 20.9258 72.0798 22.4968C71.9045 22.753 71.7899 22.8204 71.4999 22.6383C70.5155 22.0248 70.5088 22.0383 71.1763 21.0808C72.0595 19.8065 72.9361 18.5255 73.8193 17.2512C74.0418 16.9343 74.3048 16.6646 74.6823 16.5297C74.7565 16.5027 74.8442 16.4893 74.8374 16.3881C74.8374 16.287 74.7632 16.2263 74.6756 16.1858C74.3857 16.0577 74.1227 15.8892 73.8665 15.7004C73.7249 15.5993 73.6777 15.5049 73.8126 15.3498C73.9542 15.1812 74.0688 14.9857 74.1901 14.7969C74.2508 14.7093 74.3048 14.6216 74.4329 14.6284C75.6263 14.6958 76.8264 14.4598 78.0131 14.6284C79.9549 14.9115 81.4248 17.123 80.9393 18.9705C80.8449 19.3346 80.6291 19.638 80.4201 19.9346C79.0851 21.8697 77.7366 23.798 76.4016 25.7331C76.2938 25.8882 76.2263 25.9354 76.0645 25.814C75.7678 25.5915 75.4645 25.3892 75.1611 25.1802C74.9655 25.0521 74.9655 24.924 75.1004 24.7285C76.4488 22.8136 77.7839 20.8988 79.1323 18.9839C79.8875 17.9119 79.3953 16.3746 78.1479 15.9431C77.5411 15.7341 76.8939 15.8015 76.2736 15.6465C76.2601 15.6937 76.2466 15.7341 76.2331 15.7813L76.2398 15.7948Z" fill="#737300"/>
<path d="M39.3046 146.659C39.1293 146.76 38.9944 146.726 38.8798 146.679C38.1044 146.376 37.3762 146.531 36.6885 146.915C36.0345 147.279 35.394 147.67 34.7534 148.048C34.6793 148.095 34.5579 148.129 34.5714 148.237C34.5849 148.358 34.7197 148.372 34.8141 148.399C35.603 148.601 36.3918 148.803 37.1807 148.999C37.2077 148.999 37.2346 148.999 37.2549 149.012C37.4908 149.16 37.9021 149.012 37.9898 149.417C38.1044 149.929 38.1179 150.441 37.7403 150.866C37.3762 151.271 36.9043 151.547 36.4458 151.83C35.6097 152.35 34.7399 152.828 33.9376 153.388C32.7847 154.197 31.5508 154.278 30.2495 153.927C28.9617 153.577 27.7818 152.97 26.6086 152.35C26.5142 152.302 26.3996 152.235 26.4535 152.114C26.521 151.972 26.6423 152.026 26.757 152.073C27.357 152.336 27.9504 152.613 28.5639 152.855C29.7708 153.327 30.8698 153.118 31.9351 152.444C33.1353 151.682 34.3489 150.947 35.549 150.199C35.7446 150.077 35.9671 149.956 36.0278 149.7C36.1424 149.214 36.0075 148.999 35.5153 148.857C34.5894 148.601 33.7196 148.722 32.906 149.221C32.1644 149.673 31.4362 150.145 30.6878 150.583C30.4113 150.745 30.2697 150.913 30.3237 151.23C30.3709 151.514 30.2293 151.581 29.9866 151.5C29.4876 151.345 28.9819 151.19 28.4628 151.102C28.3279 151.082 28.247 150.994 28.2336 150.866C28.1864 150.394 28.1526 149.922 28.1122 149.45C28.0987 149.282 28.1998 149.268 28.3145 149.309C29.0224 149.592 29.5281 149.194 30.0742 148.844C31.7059 147.792 33.3645 146.774 35.0366 145.769C35.7311 145.351 36.4458 145.277 37.1942 145.445C37.9359 145.614 38.5764 146.012 39.1765 146.47C39.2237 146.504 39.2506 146.571 39.3113 146.646L39.3046 146.659Z" fill="#737300"/>
<path d="M23.0821 120.351C23.0012 120.29 22.954 120.27 22.9203 120.229C22.1045 119.319 21.0594 119.171 19.9267 119.333C19.421 119.407 18.9153 119.461 18.4029 119.521C18.3152 119.535 18.1939 119.481 18.1534 119.582C18.0995 119.703 18.2276 119.771 18.3017 119.831C19.0569 120.445 19.8053 121.065 20.5402 121.706C20.7762 121.908 20.7762 122.07 20.6818 122.346C20.4458 123.021 19.9671 123.351 19.2861 123.466C18.3422 123.627 17.3848 123.695 16.4274 123.783C15.9689 123.823 15.5104 123.843 15.0519 123.911C14.1619 124.032 13.3596 123.816 12.6179 123.338C11.3908 122.542 10.4603 121.463 9.62426 120.283C9.49615 120.101 9.3613 119.919 9.23994 119.737C9.17251 119.629 9.06465 119.481 9.19276 119.38C9.34783 119.252 9.41526 119.454 9.48942 119.535C9.79283 119.865 10.0355 120.243 10.3187 120.587C11.3908 121.895 12.6921 122.488 14.4181 122.164C15.4834 121.962 16.5824 121.942 17.668 121.834C17.9444 121.807 18.2141 121.76 18.4905 121.74C18.9288 121.713 18.9625 121.322 19.1041 121.052C19.2187 120.823 18.9625 120.742 18.8344 120.634C18.4906 120.33 18.1197 120.054 17.7759 119.751C17.6073 119.609 17.4252 119.582 17.223 119.602C16.4139 119.69 15.6048 119.784 14.7957 119.865C14.4451 119.899 14.0877 119.933 13.7371 119.946C13.4135 119.96 13.1775 120.094 13.0561 120.391C12.9415 120.681 12.8067 120.62 12.6246 120.465C12.2403 120.142 11.8493 119.832 11.4649 119.521C11.3031 119.393 11.3099 119.225 11.3638 119.056C11.4919 118.672 11.62 118.281 11.7549 117.896C11.8088 117.748 11.9437 117.6 12.0785 117.741C12.8134 118.517 13.7034 118.153 14.5327 118.085C16.2723 117.95 18.0118 117.721 19.7514 117.586C21.2886 117.472 22.1921 118.416 22.9001 119.622C23.0956 119.96 23.0821 119.973 23.0821 120.344V120.351Z" fill="#737300"/>
<path d="M90.8439 29.0497C91.2282 29.7374 91.5114 30.3847 91.6126 31.0994C91.7879 32.3332 91.5519 33.3648 90.4461 34.1335C89.4213 34.8482 88.4166 35.5831 87.4188 36.3382C86.8659 36.7563 86.1916 36.8709 85.5242 36.527C84.8297 36.1697 84.4386 35.5763 84.3442 34.8145C84.2431 33.9717 84.6476 33.2637 85.3623 32.9468C86.1107 32.6097 86.994 32.8052 87.5469 33.4323C87.9986 33.9447 87.9986 33.9379 88.538 33.5267C88.8819 33.2637 89.2325 33.0007 89.5898 32.7648C89.9876 32.5018 90.1562 32.1377 90.2034 31.6792C90.2978 30.742 89.9337 29.9532 89.4482 29.2048C89.1988 28.8204 88.9088 28.4564 88.565 28.1462C88.3897 27.9911 88.356 27.8968 88.5785 27.7012C89.1179 27.2225 89.6168 26.9595 90.2708 27.4989C90.4056 27.6136 90.6416 27.6203 90.8372 27.6473C91.9497 27.8023 92.7453 28.3957 93.251 29.3868C93.7027 30.2701 94.1882 31.1264 95.0242 31.7129C95.1523 31.8006 95.159 31.9354 95.1186 32.0703C94.7612 33.0749 94.741 33.176 93.8308 32.5557C93.3251 32.2119 93.015 31.7062 92.7925 31.1466C92.5161 30.4521 92.1452 29.8251 91.5249 29.3733C91.3429 29.2385 91.1608 29.1239 90.8372 29.043L90.8439 29.0497ZM86.2725 35.4415C86.6299 35.4617 86.9266 35.192 86.94 34.8279C86.9535 34.4706 86.5625 34.0526 86.2051 34.0391C85.8882 34.0323 85.5106 34.3627 85.5039 34.6594C85.4904 35.0639 85.8343 35.4145 86.2725 35.4415Z" fill="#737300"/>
<path d="M84.7417 22.0365C85.2879 22.7984 85.7126 23.6008 85.9081 24.5178C86.1037 25.428 85.834 26.2034 85.2272 26.8776C84.6541 27.5114 84.0135 28.0778 83.373 28.6441C83.1303 28.8599 82.8808 29.0891 82.692 29.3521C81.8087 30.5859 80.0827 30.5792 79.2197 29.0015C78.8286 28.2868 78.9769 27.4575 79.5635 26.8776C80.1636 26.2843 80.9457 26.1831 81.6874 26.6012C81.9301 26.736 82.1593 26.8911 82.3481 27.1001C82.4897 27.2552 82.5841 27.2484 82.7325 27.1001C83.1572 26.6484 83.582 26.2034 84.0337 25.7786C84.4248 25.4078 84.4855 24.983 84.4113 24.484C84.236 23.3109 83.5146 22.495 82.6853 21.7399C82.5504 21.6185 82.4088 21.4972 82.2605 21.3893C82.0515 21.2342 82.0717 21.0994 82.2807 20.9645C82.2942 20.9578 82.3077 20.951 82.3144 20.9443C82.7459 20.4723 83.1909 20.088 83.8719 20.56C83.9933 20.6476 84.209 20.6274 84.3709 20.6139C85.5575 20.5263 86.461 21.0252 87.1285 21.9624C87.5668 22.576 87.9983 23.1828 88.6051 23.648C88.6793 23.7019 88.7534 23.7559 88.8209 23.8166C88.9894 23.9716 89.3333 23.9514 89.3738 24.2076C89.421 24.5245 89.2119 24.8077 89.1175 25.1044C89.0501 25.3269 88.8613 25.3066 88.6928 25.2527C88.1534 25.0841 87.6881 24.8009 87.3375 24.3425C87.0409 23.9581 86.7442 23.5671 86.4947 23.1491C86.1441 22.5692 85.5845 22.2995 85.0181 22.0231C84.9507 21.9894 84.8765 21.9422 84.7552 22.0365H84.7417ZM81.6672 28.3205C81.6604 27.9227 81.3031 27.5721 80.9053 27.5788C80.5614 27.5788 80.2378 27.9024 80.231 28.2328C80.231 28.6104 80.6356 29.0149 81.0266 29.0149C81.4042 29.0149 81.6806 28.725 81.6739 28.3272L81.6672 28.3205Z" fill="#737300"/>
<path d="M103.978 123.938C103.978 123.857 103.978 123.783 103.978 123.702C103.985 123.621 104.025 123.547 104.119 123.547C104.207 123.547 104.221 123.621 104.234 123.682C104.382 124.443 104.524 125.205 104.672 125.967C104.686 126.035 104.672 126.109 104.598 126.136C104.207 126.304 103.836 126.567 103.371 126.399C103.047 126.284 102.751 126.116 102.467 125.927C101.416 125.205 100.31 124.558 99.3188 123.762C98.921 123.439 98.6378 123.695 98.3276 123.857C98.0242 124.012 97.9973 124.261 98.058 124.565C98.1389 124.936 98.213 125.313 98.2198 125.698C98.2198 125.927 98.3883 126.048 98.5569 126.149C99.6087 126.797 100.634 127.484 101.652 128.192C101.888 128.361 102.103 128.435 102.366 128.26C102.582 128.111 102.683 128.206 102.724 128.455C102.805 128.974 102.906 129.487 103.014 130.006C103.054 130.188 103.02 130.309 102.852 130.397C102.454 130.606 102.063 130.815 101.665 131.024C101.497 131.112 101.402 131.044 101.402 130.876C101.416 130.303 101.079 130.006 100.627 129.716C99.6424 129.089 98.685 128.415 97.7141 127.761C97.5927 127.68 97.4646 127.606 97.3365 127.552C96.8511 127.343 96.669 127.471 96.6623 128.003C96.6623 128.111 96.7027 128.287 96.5746 128.314C96.4061 128.347 96.3724 128.158 96.3521 128.044C96.2308 127.383 96.1296 126.722 96.0218 126.062C95.9813 125.805 96.0757 125.63 96.3184 125.529C96.7499 125.347 97.1882 125.212 97.6332 125.495C97.8422 125.63 97.9298 125.529 97.9029 125.313C97.8557 124.99 97.8085 124.666 97.7209 124.349C97.5658 123.762 97.4984 123.162 97.3837 122.569C97.3365 122.333 97.4376 122.185 97.6467 122.104C97.9298 121.996 98.213 121.888 98.4962 121.794C98.7389 121.713 98.8333 121.564 98.7996 121.315C98.7592 121.045 98.7255 120.769 98.6918 120.492C98.685 120.418 98.6917 120.317 98.7929 120.31C98.867 120.31 98.9008 120.371 98.9277 120.438C98.9412 120.472 98.9682 120.506 98.9749 120.546C99.13 121.403 99.7301 121.895 100.398 122.347C101.18 122.879 101.942 123.439 102.717 123.978C102.919 124.12 103.135 124.248 103.364 124.356C103.823 124.572 103.998 124.45 103.971 123.944L103.978 123.938Z" fill="#737300"/>
<path d="M98.9479 134.598C98.9749 135.602 98.9479 136.627 99.1232 137.632C99.1907 138.002 99.0693 138.131 98.7389 138.259C97.9703 138.555 97.3365 138.373 96.7364 137.868C95.7386 137.032 94.7339 136.202 93.7226 135.386C93.2843 135.036 93.1293 135.103 92.9877 135.656C92.9607 135.751 92.9607 135.892 92.8259 135.892C92.6843 135.892 92.6775 135.757 92.6708 135.656C92.6033 134.921 92.5359 134.193 92.4685 133.458C92.4415 133.195 92.5764 133.054 92.8191 132.973C93.1562 132.858 93.4799 132.716 93.7968 132.561C94.0395 132.447 94.1676 132.528 94.1473 132.77C94.0934 133.296 94.4036 133.579 94.7609 133.876C95.6442 134.604 96.5072 135.353 97.3837 136.088C97.6534 136.317 97.9433 136.472 98.3209 136.324C98.4962 136.256 98.6311 136.148 98.6243 135.96C98.6108 135.373 98.712 134.78 98.5502 134.193C98.5164 134.072 98.4692 133.977 98.3681 133.91C97.4309 133.276 96.669 132.42 95.7453 131.759C95.4689 131.563 95.2329 131.361 94.862 131.462C94.6665 131.516 94.5317 131.422 94.5182 131.199C94.4912 130.66 94.471 130.121 94.4373 129.588C94.4238 129.392 94.4778 129.278 94.6868 129.217C95.0374 129.109 95.3812 128.981 95.7183 128.833C95.9746 128.718 96.1229 128.792 96.1027 129.055C96.0487 129.608 96.3723 129.912 96.7567 130.222C97.6197 130.916 98.449 131.638 99.2986 132.352C99.5008 132.521 99.7166 132.669 99.9661 132.757C100.357 132.892 100.499 132.811 100.573 132.413C100.593 132.305 100.539 132.13 100.714 132.15C100.856 132.164 100.849 132.325 100.856 132.44C100.89 133.094 100.829 133.755 100.91 134.409C100.93 134.584 100.836 134.652 100.681 134.719C100.162 134.955 99.6694 134.948 99.1839 134.645C99.13 134.611 99.0626 134.591 99.0086 134.564C99.0019 134.564 98.9817 134.571 98.9345 134.591L98.9479 134.598Z" fill="#737300"/>
<path d="M96.0957 140.771C95.9204 141.303 95.7855 141.809 95.6641 142.321C95.5563 142.773 95.4551 143.218 95.4484 143.677C95.4484 143.933 95.3405 144.088 95.0775 144.209C94.201 144.607 93.365 145.072 92.7986 145.902C92.7447 145.976 92.684 146.077 92.5896 146.037C92.5357 146.016 92.4952 145.908 92.4885 145.834C92.4683 145.302 92.1581 144.931 91.8007 144.594C90.8231 143.677 90.014 142.591 89.0026 141.708C88.8745 141.593 88.8476 141.499 88.9015 141.337C89.1914 140.38 89.3735 139.402 89.4881 138.411C89.5151 138.195 89.6027 138.087 89.8185 137.993C90.4927 137.683 91.0793 137.238 91.6187 136.732C92.0569 136.321 92.0974 136.327 92.4885 136.772C93.4324 137.851 94.437 138.876 95.4349 139.894C95.6979 140.157 95.981 140.42 96.0957 140.777V140.771ZM91.6389 138.721C91.6389 138.721 91.5782 138.755 91.5378 138.768C91.0119 139.018 90.5534 139.368 90.1016 139.732C89.9196 139.881 89.9871 140.043 90.1354 140.204C91.1063 141.222 92.0772 142.241 93.0346 143.265C93.1964 143.441 93.3245 143.434 93.5066 143.299C93.8909 143.023 94.2887 142.766 94.6798 142.497C95.0843 142.22 95.1113 142.193 94.7404 141.843C93.7425 140.885 92.8391 139.84 91.8749 138.856C91.8075 138.788 91.7468 138.721 91.6389 138.721Z" fill="#737300"/>
<path d="M38.9812 159.095C38.4553 159.068 37.9294 159.041 37.4035 159.007C37.1675 158.994 37.0394 158.886 36.972 158.63C36.8506 158.117 36.945 157.666 37.2552 157.254C37.3159 157.173 37.4237 157.092 37.3496 156.978C37.2956 156.89 37.181 156.951 37.0934 156.944C36.1562 156.843 35.2055 156.816 34.275 156.654C33.9514 156.6 33.7829 156.465 33.8233 156.101C33.8705 155.724 33.7626 155.339 33.8907 154.969C34.1806 154.133 34.8886 153.816 35.6438 153.593C36.3247 153.398 37.026 153.29 37.7406 153.263C38.3677 153.243 38.3744 153.222 38.543 152.616C38.6576 152.211 38.779 151.806 38.9475 151.422C39.0419 151.213 39.1566 151.179 39.3386 151.328C39.905 151.779 40.5253 152.09 41.2737 152.096C41.5501 152.096 41.7389 152.312 41.867 152.562C42.1232 153.074 42.4873 153.499 42.8851 153.91C43.1346 154.166 43.3841 154.369 43.7684 154.315C43.9167 154.294 44.0987 154.348 44.0987 154.517C44.0987 154.692 43.9099 154.658 43.7953 154.665C43.3234 154.692 42.8784 154.847 42.5143 155.13C41.3276 156.047 40.1679 156.998 39.1161 158.07C38.9947 158.192 38.7925 158.313 38.8936 158.529C38.988 158.744 39.2037 158.792 39.4195 158.812C39.5476 158.819 39.7297 158.778 39.7364 158.953C39.7364 159.169 39.5341 159.102 39.3993 159.108C39.2577 159.108 39.1094 159.095 38.9678 159.088L38.9812 159.095ZM37.1676 156.688C37.4238 156.634 37.7407 156.782 38.0036 156.553C38.334 156.27 38.6508 155.973 38.9812 155.704C39.2105 155.515 39.2172 155.319 39.0824 155.083C38.8599 154.699 38.6239 154.321 38.4216 153.924C38.3003 153.674 38.1317 153.64 37.9092 153.735C37.4979 153.91 37.0866 154.079 36.7225 154.348C36.2438 154.699 35.9472 155.164 35.8932 155.764C35.8393 156.371 36.0483 156.614 36.6484 156.654C36.8035 156.668 36.9653 156.674 37.1541 156.688H37.1676ZM39.2846 151.786C39.1768 151.8 39.143 151.894 39.1093 151.975C38.6958 153.004 38.7767 153.989 39.3521 154.928C39.3521 154.928 39.3791 154.975 39.3925 154.996C39.4937 155.191 39.6015 155.232 39.7836 155.056C40.1207 154.726 40.478 154.416 40.8354 154.112C40.977 153.998 41.0107 153.917 40.8826 153.762C40.4106 153.168 39.9454 152.562 39.4802 151.962C39.4263 151.887 39.379 151.806 39.2779 151.786H39.2846Z" fill="#737300"/>
<path d="M51.7568 139.05C51.7905 139.212 51.7231 139.293 51.6556 139.34C51.0556 139.718 50.4757 140.149 49.7138 140.109C49.4306 140.095 49.2756 140.197 49.1542 140.439C48.8373 141.087 48.5137 141.734 48.1833 142.381C47.981 142.786 47.2663 143.022 46.882 142.799C46.6865 142.691 46.8146 142.543 46.882 142.428C47.2259 141.795 47.5765 141.161 47.9271 140.527C48.1159 140.181 48.026 139.965 47.6574 139.88C47.1382 139.758 46.6797 139.502 46.2347 139.219C46.019 139.077 45.8302 139.017 45.5605 139.192C44.8593 139.637 44.1244 140.008 43.295 140.17C42.695 140.291 42.1084 140.217 41.5488 140.015C40.8745 139.772 40.4969 138.956 40.6857 138.262C40.7666 137.958 41.0161 137.918 41.2656 137.884C41.4948 137.857 41.7241 137.87 41.8252 138.133C41.9196 138.369 41.9061 138.599 41.6971 138.781L41.6701 138.808C41.097 139.361 41.1509 139.59 41.9398 139.819C42.8231 140.075 43.6592 139.839 44.4548 139.468C44.7379 139.34 44.9941 139.145 45.2773 139.003C45.5133 138.882 45.4863 138.76 45.3515 138.578C45.0211 138.12 44.684 137.668 44.448 137.149C44.0098 136.198 44.0839 135.241 44.6772 134.6C45.3717 133.852 46.3561 133.636 47.3472 134C48.0147 134.243 48.5339 134.648 48.9047 135.261C49.1744 135.713 49.2149 135.706 49.6059 135.382C50.5296 134.621 51.4264 133.832 52.404 133.144C53.0513 132.692 53.7593 132.396 54.5144 132.214C54.6088 132.187 54.7504 132.16 54.8043 132.261C54.865 132.389 54.7167 132.423 54.6425 132.49C54.1166 132.955 53.6851 133.508 53.2671 134.061C52.2355 135.423 51.3118 136.866 50.415 138.322C50.1723 138.713 49.9161 139.098 49.6666 139.482C49.525 139.698 49.579 139.792 49.8352 139.785C50.4892 139.758 51.0623 139.522 51.5882 139.152C51.6287 139.125 51.6759 139.104 51.7433 139.064L51.7568 139.05ZM46.5988 134.358C45.574 134.358 45.0683 134.803 44.8323 135.787C44.7447 136.144 44.8054 136.461 44.866 136.792C44.9807 137.419 45.2638 137.958 45.7897 138.342C45.8976 138.423 46.0055 138.545 46.1673 138.403C47.0101 137.688 47.8529 136.987 48.6957 136.279C48.8306 136.165 48.898 136.03 48.7969 135.868C48.2372 134.951 47.7788 134.331 46.5988 134.358ZM53.8941 132.679C53.4222 132.793 53.0109 133.002 52.6468 133.279C51.5815 134.095 50.5431 134.944 49.5318 135.828C49.3632 135.976 49.3093 136.138 49.316 136.347C49.316 136.805 49.316 137.27 49.316 137.729C49.316 137.837 49.2149 137.992 49.3767 138.032C49.4981 138.066 49.5722 137.924 49.6329 137.823C50.5027 136.434 51.568 135.2 52.6805 134.007C53.0918 133.569 53.4896 133.124 53.8941 132.679ZM48.9856 137.54C48.9856 137.304 48.9924 137.189 48.9856 137.068C48.9722 136.906 49.0598 136.684 48.871 136.603C48.6755 136.515 48.5339 136.704 48.4058 136.819C47.7788 137.378 47.1652 137.951 46.5381 138.511C46.3426 138.693 46.3022 138.862 46.5584 139.01C46.909 139.219 47.2798 139.387 47.6641 139.529C48.244 139.738 48.3721 139.684 48.7092 139.152C49.0531 138.612 48.9115 137.999 48.9856 137.54Z" fill="#737300"/>
<path d="M16.1779 128.278C15.9756 129.168 16.4813 129.688 17.1353 130.146C17.3038 130.267 17.6275 130.443 17.4724 130.632C17.2769 130.861 17.1151 130.51 16.96 130.396C16.279 129.863 15.6182 129.303 14.9305 128.771C14.681 128.575 14.5462 128.366 14.5597 128.036C14.6001 127.274 14.5125 126.512 14.3709 125.764C14.3507 125.662 14.2967 125.548 14.3911 125.467C14.5125 125.352 14.6136 125.474 14.7013 125.534C15.0451 125.77 15.4295 125.743 15.807 125.683C17.1151 125.467 18.4164 125.238 19.7109 124.948C20.2031 124.84 20.6279 124.847 20.9852 125.339C21.5179 126.074 22.2325 126.654 22.8865 127.281C23.1023 127.49 23.109 127.658 22.9675 127.894C22.5225 128.622 22.064 129.344 21.6932 130.112C21.5853 130.342 21.4842 130.409 21.2347 130.207C20.1087 129.263 18.949 128.353 17.823 127.402C17.5466 127.173 17.2971 127.159 16.9869 127.22C16.4386 127.337 16.1666 127.678 16.1711 128.245C16.1711 128.245 16.1711 128.272 16.1711 128.285L16.1779 128.278ZM21.4774 126.687C21.4841 126.505 21.383 126.472 21.2481 126.492C20.3447 126.64 19.4345 126.788 18.531 126.937C18.4298 126.957 18.3152 126.977 18.2883 127.105C18.268 127.206 18.3489 127.281 18.4231 127.328C19.0299 127.705 19.5356 128.204 20.0817 128.663C20.311 128.858 20.4391 128.804 20.5604 128.555C20.8369 127.989 21.1201 127.422 21.3965 126.856C21.4235 126.795 21.4504 126.734 21.4707 126.687H21.4774Z" fill="#737300"/>
<path d="M61.4268 138.375C61.6358 140.654 61.1167 142.293 59.4311 143.277C57.9949 144.113 56.5251 143.311 56.4981 141.639C56.4779 140.432 57.0038 139.434 57.8803 138.652C59.0535 137.6 60.4761 137.061 62.0336 136.946C62.8023 136.885 63.5642 137.04 64.2451 137.411C64.6295 137.62 64.8857 137.58 65.1756 137.27C65.4386 136.993 65.7217 136.71 66.2274 136.663C65.9645 137.04 65.6274 137.216 65.3509 137.465C65.0475 137.735 65.0542 137.924 65.3105 138.247C66.1802 139.346 66.3151 140.621 66.0589 141.949C65.6476 144.079 64.2991 145.36 62.3033 146.068C61.2043 146.459 60.0986 146.641 58.9456 146.608C58.3051 146.588 57.6578 146.588 57.0106 146.567C56.815 146.567 56.5453 146.608 56.5723 146.271C56.5992 145.954 56.8555 146.116 56.9971 146.109C57.523 146.089 58.0556 146.055 58.5748 146.109C59.512 146.217 60.0918 145.718 60.5773 145.037C61.3459 143.945 61.8651 142.717 62.3505 141.484C62.8158 140.31 63.5237 139.279 64.2721 138.281C64.4811 138.004 64.4542 137.883 64.1507 137.768C62.2696 137.061 60.4761 137.29 58.8984 138.658C57.8331 139.582 57.2398 140.708 57.2128 142.124C57.1993 143.028 57.7455 143.459 58.595 143.156C60.0648 142.623 61.002 141.625 61.238 140.02C61.3189 139.481 61.3324 138.928 61.4336 138.389L61.4268 138.375ZM65.8566 140.728C65.8431 139.94 65.5397 139.171 65.1486 138.436C65.0812 138.308 65.034 138.146 64.8587 138.146C64.7036 138.146 64.6767 138.321 64.616 138.429C63.9215 139.643 63.4091 140.937 62.863 142.218C62.2764 143.607 61.6156 144.915 60.3211 145.785C60.2469 145.839 60.1525 145.913 60.193 146.008C60.2469 146.136 60.375 146.068 60.4694 146.055C61.2178 145.954 61.919 145.711 62.627 145.455C64.6564 144.72 65.7622 142.549 65.8566 140.728Z" fill="#737300"/>
<path d="M31.969 21.9019C32.8522 21.8952 33.4253 22.1379 33.9242 22.5896C35.4345 23.9786 36.9448 25.3675 38.4551 26.7564C38.7046 26.9857 38.9608 27.2149 39.2103 27.4509C39.3721 27.5992 39.3923 27.7543 39.2035 27.9161C38.9541 28.1251 38.7114 28.3544 38.5293 28.6308C38.4079 28.8196 38.3068 28.7859 38.1585 28.651C37.282 27.8217 36.3987 26.9857 35.5087 26.1766C34.7199 25.4619 33.9108 24.7674 33.1489 24.019C32.4274 23.3111 30.9576 23.3987 30.1822 24.1269C29.8181 24.4708 29.8316 24.9629 29.7844 25.4147C29.7305 25.9339 29.6968 26.4598 29.6496 26.9789C29.6361 27.1205 29.6024 27.3161 29.454 27.3363C29.2855 27.3565 29.2652 27.1475 29.2248 27.0261C28.8674 25.9069 28.7798 24.7607 28.9551 23.601C29.036 23.0886 29.3529 22.7514 29.7979 22.5289C30.5463 22.1514 31.3419 21.9424 31.9757 21.9019H31.969Z" fill="#737300"/>
<path d="M107.625 112.056C107.281 111.166 106.506 110.91 105.778 110.573C104.193 109.844 102.609 109.116 101.024 108.381C99.959 107.889 99.4466 106.999 99.2713 105.887C99.2039 105.448 99.1702 104.997 99.1904 104.552C99.1904 104.464 99.1634 104.356 99.305 104.343C99.4061 104.336 99.4803 104.376 99.514 104.484C99.5208 104.511 99.5342 104.531 99.541 104.558C99.7837 105.624 100.532 106.21 101.469 106.635C103.404 107.505 105.339 108.388 107.275 109.271C107.477 109.366 107.598 109.332 107.753 109.177C108.036 108.901 108.36 108.658 108.266 108.186C108.252 108.125 108.266 108.038 108.34 108.017C108.454 107.99 108.508 108.091 108.542 108.166C108.704 108.584 108.859 109.002 109.001 109.42C109.095 109.703 109.291 110.02 109.23 110.269C109.176 110.492 108.832 110.654 108.603 110.822C108.185 111.126 107.983 111.598 107.618 112.056H107.625Z" fill="#737300"/>
<path d="M42.1498 24.7604C42.143 25.4076 41.5767 26.1493 40.9024 26.392C40.1945 26.6483 39.4798 26.4325 38.9269 25.7987C37.329 23.9648 35.7243 22.1308 34.1263 20.3036C33.8431 19.98 33.5667 19.6361 33.27 19.326C33.1015 19.1507 33.0947 19.0428 33.2903 18.8877C33.5397 18.6922 33.7824 18.4899 33.9982 18.2607C34.1937 18.0517 34.3286 18.0719 34.5106 18.2742C35.3602 19.2586 36.2232 20.2362 37.0727 21.2206C37.6863 21.9218 38.2998 22.6298 38.9134 23.331C39.1157 23.5602 39.2843 23.6344 39.5674 23.3984C40.0596 22.9804 40.653 22.9602 41.1991 23.2299C41.7924 23.5265 42.1565 24.0457 42.1498 24.7536V24.7604ZM41.1519 24.8413C41.1519 24.403 40.835 24.0996 40.3967 24.1131C39.9989 24.1198 39.6888 24.457 39.709 24.8683C39.7225 25.1649 40.0664 25.5155 40.3495 25.5223C40.7069 25.5223 41.1586 25.1447 41.1586 24.8413H41.1519Z" fill="#737300"/>
<path d="M104.78 122.864C104.571 121.974 103.883 121.637 103.209 121.259C102.164 120.68 101.186 119.978 100.108 119.459C99.8042 119.311 99.7705 119.034 99.7435 118.765C99.6828 118.063 99.5547 117.382 99.3052 116.728C99.2378 116.546 99.3052 116.418 99.4064 116.297C99.8177 115.798 100.377 115.454 100.762 114.922C100.842 114.807 100.971 114.827 101.052 114.962C101.281 115.36 101.517 115.758 101.739 116.155C101.813 116.29 101.739 116.398 101.645 116.506C101.375 116.796 101.078 117.059 100.762 117.288C100.553 117.436 100.546 117.571 100.775 117.699C102.036 118.428 103.303 119.156 104.564 119.891C104.76 120.005 104.901 119.951 105.036 119.776C105.252 119.493 105.481 119.223 105.71 118.953C105.946 118.684 105.859 118.387 105.791 118.09C105.751 117.922 105.623 117.659 105.839 117.605C106.102 117.544 106.075 117.828 106.115 118.023C106.25 118.677 106.391 119.331 106.547 119.985C106.627 120.329 106.56 120.585 106.277 120.821C105.798 121.219 105.448 121.738 105.158 122.284C105.063 122.453 105.003 122.648 104.78 122.851V122.864Z" fill="#737300"/>
<path d="M44.3545 43.4776C44.4557 42.7359 44.0713 42.1493 43.7612 41.5425C43.3971 40.8278 42.9993 40.1333 42.642 39.4186C42.5004 39.1287 42.3116 39.0276 42.0149 39.122C41.7924 39.1961 41.5564 39.2433 41.3811 39.4186C41.3272 39.4726 41.2597 39.5332 41.1721 39.5063C40.7271 39.3512 40.5248 39.6748 40.3765 39.9715C39.7899 41.1245 39.8169 42.183 41.1384 42.8708C41.2597 42.9314 41.3811 43.1 41.516 42.9921C41.6373 42.891 41.5497 42.7224 41.5025 42.5876C41.2935 41.974 41.2867 41.3537 41.4013 40.7199C41.4553 40.4233 41.516 40.0929 41.907 40.0726C42.3183 40.0457 42.8847 40.3963 42.9656 40.6929C43.0937 41.1717 42.9656 41.6301 42.8307 42.0819C42.7566 42.3314 42.5408 42.3853 42.2846 42.3516C42.143 42.3313 41.9407 42.237 41.8463 42.3988C41.7654 42.5404 41.9003 42.7022 41.9744 42.837C42.2037 43.2551 42.5611 43.5517 42.9723 43.754C43.3027 43.9091 43.3971 44.1113 43.296 44.4417C43.2151 44.7182 43.1544 44.9946 43.0667 45.3452C42.379 44.5833 41.4755 44.2125 40.7474 43.6057C39.9046 42.8977 39.6753 41.9538 39.7764 40.902C39.8169 40.4704 39.9045 40.0457 40.0529 39.6344C40.2012 39.2096 40.4304 38.8523 40.835 38.6432C40.9968 38.5556 41.1249 38.4477 41.1047 38.2522C40.9429 36.5801 41.8194 35.3799 42.8914 34.2607C43.6331 33.4853 44.2736 32.6358 44.4489 31.53C44.4826 31.3277 44.4961 31.1255 44.5298 30.8288C44.7456 31.5165 44.6512 32.1099 44.4826 32.6897C44.2466 33.5123 43.7949 34.2135 43.2016 34.827C42.6824 35.3664 42.1767 35.9193 41.7587 36.5464C41.4688 36.9914 41.3407 37.4768 41.3474 38.0027C41.3474 38.2522 41.4486 38.3668 41.7183 38.2994C41.9205 38.2522 42.1363 38.2387 42.3183 38.1308C42.5678 37.9825 42.7026 38.0364 42.8307 38.2994C43.3634 39.3849 43.9163 40.457 44.4489 41.5425C44.7389 42.1358 44.7119 42.8775 44.3545 43.4978V43.4776ZM41.907 40.7334C41.7722 40.7199 41.6778 40.7334 41.6306 40.8278C41.5699 40.9559 41.5901 41.084 41.6643 41.2054C41.7992 41.4211 42.0284 41.4953 42.2441 41.5897C42.4532 41.6841 42.6487 41.6301 42.7296 41.4076C42.8105 41.1919 42.7566 40.9761 42.5139 40.8885C42.3048 40.8143 42.0823 40.7739 41.907 40.7334Z" fill="#737300"/>
<path d="M106.938 116.267C106.514 116.24 106.109 116.112 105.745 115.896C104.585 115.215 103.331 114.743 102.158 114.089C101.908 113.948 101.679 113.914 101.423 114.089C101.187 114.258 101.045 114.177 100.958 113.907C100.809 113.435 100.634 112.963 100.472 112.491C100.405 112.303 100.452 112.154 100.607 112.04C100.958 111.783 101.315 111.534 101.659 111.278C101.801 111.17 101.875 111.224 101.915 111.365C102.084 112.053 102.603 112.377 103.19 112.66C104.241 113.166 105.28 113.698 106.331 114.217C106.527 114.312 106.736 114.453 106.952 114.265C107.161 114.083 107.08 113.86 107.019 113.644C107.019 113.617 106.999 113.59 106.999 113.57C106.999 113.449 106.898 113.28 107.06 113.22C107.255 113.152 107.296 113.334 107.336 113.469C107.457 113.887 107.565 114.305 107.68 114.723C107.734 114.925 107.761 115.141 107.848 115.33C108.044 115.728 107.875 115.943 107.525 116.105C107.329 116.193 107.147 116.287 106.925 116.274L106.938 116.267Z" fill="#737300"/>
<path d="M39.7633 50.7675C39.5947 50.754 39.5408 50.6394 39.4666 50.5517C38.6643 49.5741 37.6057 48.9875 36.4258 48.5965C36.2842 48.5493 36.0954 48.4346 35.9876 48.5762C35.8662 48.7313 36.0887 48.8122 36.1561 48.9268C36.8506 50.1067 37.599 51.253 37.8619 52.6284C37.9496 53.0734 37.9361 53.5117 37.8012 53.9702C37.6933 52.8374 36.918 52.1092 36.237 51.3339C36.0415 51.1181 35.8662 50.8889 35.7246 50.6327C35.6774 50.5517 35.61 50.4708 35.5088 50.4978C35.4616 50.5113 35.4077 50.5855 35.4009 50.6462C35.3537 50.8754 35.3537 51.1518 35.0301 51.1653C34.666 51.1788 34.2885 51.1316 34.0862 50.7877C33.776 50.2753 33.7086 49.6752 33.6007 49.1021C33.5535 48.8594 33.7154 48.7583 33.9581 48.7583C34.8346 48.7583 35.4346 49.2235 35.9066 49.9045C36.1021 50.1877 36.2977 50.4776 36.6416 50.6192C35.8729 49.446 35.1919 48.2391 34.7941 46.8636C35.792 47.8008 37.1675 47.9155 38.3002 48.6369C38.3407 48.4211 38.2328 48.3402 38.1518 48.2391C37.5922 47.5581 37.0326 46.8771 36.473 46.1962C35.5762 45.0971 35.7785 43.9577 36.4258 42.825C36.3988 42.9396 36.3718 43.0475 36.3381 43.1621C36.3044 43.2767 36.2707 43.3913 36.237 43.5059C36.0482 44.1532 36.1426 44.7533 36.5134 45.3129C36.9112 45.9062 37.4035 46.4187 37.8417 46.9783C38.2665 47.5177 38.6845 48.0571 39.116 48.583C39.6352 49.21 39.7026 49.9652 39.7565 50.7608L39.7633 50.7675ZM34.9762 50.0663C34.9425 49.8573 34.7671 49.7224 34.5649 49.6213C34.3693 49.5269 34.1738 49.4662 33.9648 49.5808C33.8839 49.628 33.8704 49.7022 33.9176 49.7831C34.0457 50.0124 34.1738 50.2416 34.4166 50.3764C34.6728 50.518 34.9627 50.3765 34.9762 50.073V50.0663Z" fill="#737300"/>
<path d="M49.688 30.8744C50.0184 30.7126 50.3623 30.5845 50.7331 30.598C51.3939 30.6182 51.7242 30.9486 51.7175 31.6093C51.704 32.7151 51.5354 33.8073 51.4882 34.9131C51.468 35.3042 51.5017 35.702 51.4747 36.0998C51.4478 36.4773 51.6501 36.4908 51.9063 36.4167C52.2299 36.3155 52.5468 36.1807 52.8637 36.0593C53.3559 35.8773 53.8413 35.6683 54.3403 35.5064C54.819 35.3514 55.0887 35.0547 55.1224 34.549C55.1561 33.922 55.1966 33.2882 55.2303 32.6611C55.237 32.5128 55.2235 32.3645 55.055 32.3038C54.8662 32.2364 54.7448 32.3577 54.6639 32.4858C54.529 32.6948 54.4144 32.9173 54.2998 33.1398C54.2054 33.3354 54.1178 33.3489 53.9492 33.2005C53.2817 32.6139 53.248 32.6207 52.7558 33.3624C52.6142 33.5781 52.412 33.7669 52.331 34.0231C52.2906 34.1377 52.2434 34.2658 52.3782 34.34C52.4996 34.4007 52.5738 34.2793 52.6277 34.2052C52.7086 34.104 52.7491 33.9692 52.83 33.868C53.012 33.632 53.2615 33.4837 53.5514 33.6388C53.8346 33.7939 54.0166 34.0366 53.8683 34.3872C53.7065 34.7783 53.4907 35.1356 53.1873 35.4323C52.83 35.7829 52.5872 35.7694 52.1085 35.4188C51.6433 35.0749 51.5557 34.8592 51.8119 34.4344C52.2164 33.7602 52.6075 33.0724 53.1064 32.4589C53.3356 32.1689 53.6323 32.1015 53.8953 32.3308C54.2257 32.6207 54.3874 32.4521 54.5762 32.1892C54.7043 32.0139 54.6774 31.6902 54.9201 31.6498C55.1898 31.6026 55.4325 31.8183 55.6955 31.906C55.8506 31.9532 55.918 32.0611 55.9113 32.2296C55.8708 33.1466 55.8169 34.0636 55.6888 34.9738C55.6281 35.3985 55.3786 35.6413 55.001 35.8099C53.9087 36.2886 52.7693 36.6526 51.6501 37.0707C51.0095 37.3067 50.8005 37.1381 50.8342 36.4436C50.8949 35.1289 50.9758 33.8208 51.0432 32.5061C51.0567 32.2701 51.0432 32.0341 51.0432 31.7981C51.0567 31.1643 50.7466 30.8542 50.1195 30.8744C49.9779 30.8744 49.8296 30.8879 49.688 30.8946V30.8744ZM53.0794 34.994C53.3154 34.994 53.4301 34.8861 53.4301 34.6367C53.4301 34.3467 53.3154 34.1984 53.0187 34.1917C52.7693 34.1917 52.5873 34.3063 52.5873 34.5423C52.5873 34.8322 52.803 34.967 53.0794 34.994Z" fill="#737300"/>
<path d="M83.7843 46.9528C83.5213 46.7573 83.319 46.609 83.11 46.4606C82.3684 45.9347 81.8425 45.9482 81.0738 46.4202C80.2715 46.9124 79.5433 47.5394 78.5859 47.7484C78.3769 47.7956 78.1611 47.8294 77.9656 47.7619C76.9137 47.3776 75.8822 46.9461 75.0798 46.1235C75.0057 46.0493 74.9382 45.9684 74.8708 45.8875C74.8506 45.8606 74.8438 45.8201 74.8034 45.7325C75.1 45.8336 75.3563 45.9347 75.6125 46.0089C76.3946 46.2449 77.1565 46.3123 77.8644 45.7864C78.1476 45.5774 78.2488 45.2942 78.3162 44.984C78.3634 44.775 78.215 44.6604 78.0532 44.5997C77.6217 44.4312 77.4397 44.1008 77.406 43.6558C77.3992 43.5074 77.3857 43.3524 77.2307 43.2782C76.7587 43.049 76.28 42.7388 75.7541 42.7928C74.7966 42.8804 74.3584 43.703 74.5472 44.6402C74.5741 44.7885 74.7292 44.9234 74.8978 44.9031C75.1068 44.8762 75.0461 44.6941 75.0461 44.5525C75.0529 43.9525 75.2821 43.7637 75.8889 43.8648C76.2126 43.9188 76.5295 44.0064 76.8194 44.175C77.2239 44.4109 77.3857 44.8897 77.197 45.2942C77.0217 45.665 76.7317 45.7594 76.226 45.6111C75.6462 45.4425 75.0663 45.274 74.4865 45.1121C74.3112 45.0582 74.1426 45.0043 74.028 44.8357C73.5156 44.0131 73.974 42.7388 74.8843 42.4422C75.154 42.3545 75.4237 42.395 75.6597 42.4691C76.3811 42.6984 77.116 42.9141 77.797 43.258C78.006 43.3659 78.1274 43.5075 78.1004 43.7502C78.0532 44.1952 78.2623 44.4851 78.6735 44.6267C79.0039 44.7413 79.0646 44.984 79.0107 45.2875C78.8826 46.0898 78.2892 46.582 77.3992 46.6022C77.0958 46.609 76.7924 46.5753 76.4957 46.5618C76.4216 46.5618 76.3204 46.5348 76.307 46.6427C76.307 46.6899 76.3541 46.7708 76.4013 46.7977C77.0351 47.236 77.6824 47.5664 78.4915 47.236C79.1388 46.9663 79.7388 46.6224 80.3322 46.2516C80.6423 46.0561 80.9525 45.8538 81.3166 45.7662C82.1796 45.5639 82.8066 46.0291 83.4202 46.5078C83.5416 46.6022 83.6966 46.7034 83.7775 46.9596L83.7843 46.9528ZM76.6238 44.7548C76.6373 44.5053 76.3744 44.1345 76.1991 44.1817C75.9024 44.2559 75.754 44.4986 75.7271 44.7885C75.7001 45.0515 75.8148 45.2537 76.1047 45.2875C76.3609 45.3144 76.6103 45.0515 76.6238 44.7615V44.7548Z" fill="#737300"/>
<path d="M68.061 31.4317C67.2519 32.8341 66.072 33.3061 64.683 33.1375C63.9953 33.0566 63.3885 32.7262 62.7142 32.5846C62.0804 32.4498 61.4871 32.5105 60.9073 32.7734C60.1454 33.1173 59.9162 34.0005 60.3814 34.6883C60.5702 34.9647 61.0759 35.167 61.3927 35.0996C61.5478 35.0659 61.5613 34.9647 61.5613 34.8366C61.5613 34.5197 61.4534 34.1287 61.8175 33.9534C62.3367 33.6971 62.8828 33.4612 63.4761 33.6971C63.7323 33.7983 63.8672 34.014 63.8604 34.2837C63.847 34.5669 63.6717 34.7287 63.3952 34.7894C63.1188 34.8568 62.8424 34.8164 62.5727 34.8366C62.4513 34.8434 62.2895 34.7692 62.2288 34.9377C62.1749 35.0928 62.276 35.2074 62.3704 35.3221C62.6468 35.6592 63.0176 35.8008 63.4222 35.8817C63.5638 35.9086 63.6986 35.9491 63.8335 36.0098C63.2132 36.1446 62.6131 36.0705 62.1074 35.6929C61.6422 35.3423 61.1635 35.194 60.6039 35.3355C60.3679 35.3962 60.1589 35.3288 59.9903 35.1603C59.5116 34.6883 59.2621 34.1354 59.4037 33.4544C59.4846 33.0431 59.7543 32.7734 60.1319 32.6453C61.0287 32.3419 61.9186 32.0183 62.8895 32.0924C63.0648 32.1059 63.1727 32.0722 63.1458 31.8632C63.0986 31.4587 63.3413 31.2496 63.6717 31.1418C64.1639 30.9867 64.6695 30.8519 65.1348 31.2227C65.5865 31.5868 65.5528 32.0183 65.0673 32.3284C64.9729 32.3891 64.8179 32.4363 64.8718 32.5779C64.9123 32.6925 65.0538 32.6386 65.155 32.6453C66.3012 32.6723 67.2317 32.1734 68.0543 31.425L68.061 31.4317ZM62.721 34.6478C62.9839 34.6209 63.1997 34.5467 63.193 34.2298C63.1862 33.9331 62.9705 33.8724 62.7277 33.8859C62.4715 33.9062 62.222 33.9534 62.222 34.2972C62.222 34.6613 62.5187 34.5804 62.721 34.6411V34.6478ZM64.6291 31.843C64.5954 31.5733 64.474 31.3643 64.1706 31.3777C63.9549 31.3845 63.7728 31.4856 63.793 31.7688C63.8133 32.0453 64.0425 32.2745 64.2987 32.2543C64.5415 32.234 64.6224 32.079 64.6291 31.843Z" fill="#737300"/>
<path d="M59.1134 109.676C58.601 109.676 58.0886 109.669 57.5829 109.676C57.4143 109.676 57.3469 109.642 57.3469 109.467C57.3469 108.563 57.3604 107.653 57.3469 106.749C57.3469 106.453 57.475 106.46 57.6908 106.534C58.392 106.797 59.0864 107.053 59.8079 107.248C60.1989 107.356 60.59 107.457 60.9878 107.532C61.2036 107.572 61.3317 107.687 61.271 107.909C61.1564 108.307 61.1631 108.718 61.1699 109.123C61.1699 109.507 60.9945 109.635 60.6439 109.628C60.1315 109.622 59.6191 109.628 59.1067 109.628C59.1067 109.642 59.1067 109.662 59.1067 109.676H59.1134Z" fill="#737300"/>
<path d="M75.4447 125.188C75.438 123.981 76.0381 123.516 76.9416 123.698C77.6765 123.846 78.2631 124.224 78.6878 124.817C79.416 125.842 79.9824 126.948 80.1644 128.222C80.2723 128.97 79.7734 130.036 79.1329 130.44C78.9171 130.575 78.6879 130.602 78.4519 130.568C78.2496 130.541 78.0473 130.481 77.9731 130.272C77.8855 130.022 77.9597 129.773 78.108 129.564C78.1822 129.449 78.2968 129.429 78.4182 129.51C78.5935 129.631 78.7485 129.766 78.8496 129.962C78.9912 130.245 79.1666 130.278 79.3486 130.009C79.6992 129.496 79.888 128.923 79.7599 128.289C79.6183 127.568 79.2138 126.954 78.9171 126.3C78.8766 126.219 78.816 126.125 78.7148 126.145C78.5935 126.172 78.6406 126.3 78.6406 126.381C78.6474 126.86 78.5867 127.298 78.1215 127.581C77.5147 127.946 76.8337 127.824 76.3078 127.177C75.7751 126.523 75.4582 125.761 75.438 125.195L75.4447 125.188ZM75.7954 124.756C75.7954 125.64 76.6516 126.86 77.4675 127.163C78.0203 127.366 78.344 127.15 78.3507 126.57C78.3642 125.963 77.3596 124.352 76.8135 124.109C76.2336 123.846 75.7886 124.129 75.7954 124.756Z" fill="#737300"/>
<path d="M75.8747 130.878C75.8882 131.066 75.9218 131.221 75.9016 131.377C75.76 132.341 74.7689 132.658 74.0475 132.159C73.0496 131.464 72.6923 129.624 73.3126 128.592C73.6092 128.1 74.2228 127.958 74.8094 128.262C75.3083 128.518 75.7465 128.862 76.023 129.354C76.7646 130.662 77.2501 132.044 77.1422 133.588C77.0816 134.444 76.5354 134.93 75.8544 135.287C75.5915 135.429 75.2881 135.361 75.0116 135.24C74.8026 135.152 74.6475 135.017 74.6947 134.761C74.7285 134.559 74.8026 134.357 75.0184 134.31C75.2746 134.249 75.4364 134.424 75.5578 134.62C75.8207 135.051 75.8814 135.065 76.2522 134.714C76.5961 134.39 76.7444 133.979 76.7647 133.521C76.8051 132.685 76.5085 131.923 76.2118 131.168C76.1578 131.033 76.0904 130.905 75.8747 130.884V130.878ZM75.6792 131.066C75.7263 130.817 75.5713 130.601 75.4971 130.372C75.3083 129.826 75.0858 129.293 74.715 128.841C74.479 128.545 74.1688 128.457 73.798 128.545C73.535 128.605 73.4002 128.781 73.353 129.03C73.1979 129.833 73.8654 131.309 74.5666 131.714C75.2476 132.105 75.6522 131.875 75.6792 131.073V131.066Z" fill="#737300"/>
<path d="M80.5953 124.178C80.7369 123.679 80.892 123.214 81.155 122.789C81.2831 122.587 81.1347 122.384 81.0201 122.202C80.5077 121.393 79.9952 120.584 79.4828 119.768C79.4356 119.687 79.3885 119.613 79.3413 119.532C79.2941 119.438 79.2334 119.316 79.3345 119.249C79.4289 119.182 79.5368 119.249 79.6042 119.337C79.8199 119.606 80.029 119.869 80.238 120.146C80.5751 120.598 80.9122 121.056 81.2493 121.508C81.31 121.589 81.364 121.717 81.4786 121.683C81.6067 121.649 81.573 121.514 81.5797 121.413C81.5932 121.177 81.5932 120.935 81.6674 120.712C81.7011 120.712 81.728 120.719 81.7618 120.726C81.7618 121.043 81.782 121.359 81.7618 121.676C81.7348 122.047 81.8494 122.344 82.1259 122.587C82.1933 122.647 82.254 122.715 82.3146 122.789C82.7327 123.288 82.7394 123.463 82.3686 123.982C82.2742 124.11 82.2 124.137 82.1124 123.982C81.9708 123.746 81.8359 123.503 81.6741 123.281C81.4853 123.011 81.337 123.018 81.1887 123.315C80.9931 123.706 80.865 124.117 80.7976 124.549C80.7841 124.643 80.7976 124.785 80.6627 124.805C80.5549 124.818 80.5144 124.717 80.4605 124.643C79.4694 123.268 78.4782 121.892 77.4804 120.523C77.3388 120.335 77.3522 120.126 77.4197 119.923C77.4938 119.701 77.5815 119.485 77.7096 119.155C78.7074 120.867 79.6312 122.526 80.5818 124.205L80.5953 124.178Z" fill="#737300"/>
<path d="M68.9979 39.837C69.6452 39.601 70.252 39.2908 70.8454 38.9672C71.4859 38.6233 71.4117 38.5559 71.2971 37.7603C71.2095 37.1737 70.8993 36.958 70.3599 36.9445C69.9284 36.9377 69.4969 36.8568 69.0654 36.8568C68.3102 36.8568 68.0203 37.1737 68.1214 37.9693C68.1821 38.4211 68.3304 38.5087 68.7552 38.3739C68.944 38.3132 69.0182 38.1716 69.0114 38.0233C68.9979 37.6389 69.2609 37.5446 69.5441 37.4502C69.8205 37.3558 70.097 37.4299 70.3599 37.4974C70.5554 37.5446 70.6161 37.7266 70.5622 37.9086C70.5082 38.1177 70.5757 38.4076 70.2386 38.4683C69.5508 38.6031 68.8564 38.657 68.1619 38.6166C67.6832 38.5896 67.4809 38.3671 67.4607 37.8884C67.4607 37.7468 67.4539 37.5985 67.4674 37.4569C67.5416 36.8299 67.7911 36.5939 68.4248 36.6276C69.3553 36.6748 70.2857 36.7827 71.2229 36.7152C71.4589 36.7018 71.614 36.8231 71.7219 37.0254C71.9444 37.4367 72.0455 37.8884 72.1332 38.3334C72.1871 38.5964 71.9983 38.9065 71.7489 39.0616C70.9128 39.5807 70.0026 39.8977 68.9979 39.837ZM69.7261 38.239C69.8542 38.1783 70.0632 38.1446 70.043 37.9289C70.0295 37.767 69.8879 37.6929 69.7261 37.7064C69.5441 37.7199 69.4227 37.8008 69.443 38.003C69.4564 38.1514 69.5373 38.2458 69.7261 38.2323V38.239Z" fill="#737300"/>
<path d="M72.6527 139.409C72.4235 138.283 72.1943 137.15 71.9583 136.024C71.8504 135.512 71.6819 135.013 71.6751 134.48C71.6751 134.372 71.6549 134.197 71.5066 134.204C71.338 134.204 71.4121 134.386 71.3919 134.487C71.2368 135.444 71.0885 136.402 70.9267 137.359C70.9064 137.481 70.8862 137.622 70.7312 137.71C70.6031 137.562 70.657 137.38 70.6907 137.231C70.9739 135.943 71.0615 134.635 71.0211 133.314C71.0143 133.078 71.0481 132.842 71.0683 132.606C71.075 132.518 71.0683 132.41 71.2031 132.397C71.311 132.39 71.3784 132.458 71.4121 132.545C71.4728 132.694 71.5268 132.835 71.574 132.99C72.1336 134.736 72.6865 136.49 73.2394 138.236C73.3 138.431 73.3 138.613 73.1584 138.795C73.0033 138.991 72.882 139.2 72.7471 139.409C72.7134 139.409 72.6797 139.409 72.646 139.402L72.6527 139.409Z" fill="#737300"/>
<path d="M57.4014 101.989C57.8936 102.151 58.3655 102.326 58.8443 102.481C59.5657 102.717 60.2939 102.94 61.0423 103.068C61.312 103.115 61.4064 103.216 61.3659 103.513C61.2513 104.362 61.2648 104.383 60.4827 104.086C59.5522 103.729 58.669 103.27 57.7992 102.785C57.489 102.609 57.543 102.259 57.4014 101.989Z" fill="#737300"/>
<path d="M69.0247 40.5408C69.4022 40.615 69.7596 40.7499 70.1371 40.7836C71.108 40.8712 71.9508 40.5543 72.6925 39.961C73.3263 39.4553 73.2319 38.8283 72.4835 38.5181C72.4228 38.4912 72.3756 38.4507 72.3149 38.417C72.8678 38.0866 73.4814 38.2889 73.6904 38.8485C73.8927 39.3879 73.805 39.779 73.4005 40.1633C72.1801 41.3027 70.5956 41.505 69.1527 40.6959C69.0988 40.669 69.0381 40.6487 69.0247 40.5476V40.5408Z" fill="#737300"/>
<path d="M41.9274 46.2764C41.9071 46.5326 42.0824 46.8899 41.5835 46.8832C40.9295 46.8765 40.7811 46.7686 40.7744 46.2562C40.7677 45.6022 40.7676 45.6022 41.4014 45.6089C41.9813 45.6089 41.8869 45.5347 41.9274 46.2831V46.2764Z" fill="#737300"/>
<path d="M98.4623 109.203C98.9275 109.877 99.3793 110.484 99.6827 111.185C99.7232 111.273 99.7703 111.374 99.6827 111.428C99.6422 111.455 99.5344 111.401 99.4737 111.361C99.0691 111.084 98.6983 110.774 98.341 110.444C98.2263 110.343 98.2196 110.221 98.2331 110.086C98.2533 109.797 98.3747 109.54 98.4691 109.196L98.4623 109.203Z" fill="#737300"/>
<path d="M47.456 39.6849C47.456 39.8198 47.4628 39.8804 47.456 39.9479C47.4223 40.1704 47.4695 40.4873 47.2537 40.5682C46.9908 40.6626 46.6942 40.521 46.4379 40.3794C46.3233 40.312 46.2829 40.2041 46.3031 40.076C46.3166 40.0018 46.3368 39.9209 46.357 39.8467C46.4918 39.1725 46.6537 39.0781 47.3212 39.2871C47.5842 39.368 47.4358 39.5905 47.4628 39.6849H47.456Z" fill="#737300"/>
<path d="M52.122 144.79C52.3782 144.811 52.5669 144.959 52.5737 145.249C52.5804 145.559 52.3917 145.741 52.0815 145.734C51.7983 145.734 51.5623 145.613 51.5219 145.296C51.4949 145.067 51.8118 144.797 52.1152 144.79H52.122Z" fill="#737300"/>
<path d="M69.9421 141.178C70.1646 141.212 70.3668 141.279 70.3466 141.556C70.3331 141.832 70.1646 141.994 69.8949 141.98C69.6656 141.974 69.5106 141.825 69.5173 141.576C69.5173 141.3 69.6994 141.198 69.9488 141.178H69.9421Z" fill="#737300"/>
</svg>
